<?xml version="1.0" encoding="utf-8"?>
<!-- Generator: Adobe Illustrator 23.0.1, SVG Export Plug-In . SVG Version: 6.00 Build 0)  -->
<svg version="1.1" xmlns="http://www.w3.org/2000/svg" xmlns:xlink="http://www.w3.org/1999/xlink" width="181.3px"
	 height="230.3px" viewBox="0 0 181.3 230.3" enable-background="new 0 0 181.3 230.3" xml:space="preserve">
<g id="Layer_1" display="none">
</g>
<g id="Layer_2">
	<g id="Layer_3" display="none">
	</g>
	<g>
		<g>
			<path fill="#FFFFFF" d="M55.8,68.1c-15.1,0-27.4,12.2-27.4,27.2s12.3,27.2,27.4,27.2s27.4-12.2,27.4-27.2S70.9,68.1,55.8,68.1z
				 M55.8,112.3c-9.7,0-17.6-7.6-17.6-17c0-9.4,7.9-17,17.6-17c9.7,0,17.6,7.6,17.6,17C73.4,104.7,65.5,112.3,55.8,112.3z"/>
			<path fill="#FFFFFF" d="M125,68.1l-0.3,0c-14.9,0-27.1,12.2-27.1,27.2c0,15,12.3,27.2,27.4,27.2c15,0,27.3-12.2,27.4-27.3
				c0.1-7.1-2.7-13.8-7.9-19C139.4,71,132.4,68.1,125,68.1z M125.1,112.3c-9.7,0-17.6-7.6-17.6-17c0-9.4,7.9-17,17.6-17
				c9.7,0,17.6,7.6,17.6,17C142.7,104.7,134.8,112.3,125.1,112.3z"/>
		</g>
		<g>
			<path fill="#FFFFFF" d="M165.3,104.8c-4.5,18.1-20.9,31.7-40.2,31.7c-14.5,0-27.3-7.4-34.7-18.7C83,129,70.2,136.4,55.8,136.4
				c-19.5,0-35.9-13.5-40.3-31.6l-15.5-1v25.6c0,134.4,181.3,134.4,181.3,0v-24.3L165.3,104.8z M90.3,179.3L66.9,139l46.8-0.1
				L90.3,179.3z"/>
			<path fill="#FFFFFF" d="M15.5,85.5c4.4-18,20.8-31.4,40.2-31.4c14.5,0,27.2,7.4,34.6,18.6c7.4-11.2,20-18.6,34.3-18.6l0.4,0
				c11.1,0.1,21.5,4.4,29.3,12.2c5.4,5.3,9.1,11.9,10.8,18.9l16,0.4V0L90.6,61.4L0,0v85.2L15.5,85.5z"/>
		</g>
	</g>
</g>
</svg>
