<?xml version="1.0" encoding="utf-8"?>
<!-- Generator: Adobe Illustrator 23.0.1, SVG Export Plug-In . SVG Version: 6.00 Build 0)  -->
<svg version="1.1" xmlns="http://www.w3.org/2000/svg" xmlns:xlink="http://www.w3.org/1999/xlink" x="0px" y="0px" width="325.8px"
	 height="87.5px" viewBox="0 0 325.8 87.5" enable-background="new 0 0 325.8 87.5" xml:space="preserve">
<g id="Layer_1" display="none">
</g>
<g id="Layer_2">
	<g id="Layer_3" display="none">
	</g>
</g>
<g id="Layer_4">
	<g>
		<path fill="#FFFFFF" d="M316.7,22.1c-10-12-36.6-24.5-63.2-1.5c-11,9.6-12.3,28.3-11.2,38.4c0.7,6.8,3,14.2,9,17.3
			c7.4,3.8,17-1.6,19.9-9.4c-0.7,5.2,2,19,12.4,20.3c17.9,2.2,17.3-11,17.3-15.8c1.4,2.4,1.6,3.5,2.9,4.9c2.4,2.8,4.6,3.3,7.2,2.7
			c10.5-2.1,14.5-17,15.1-27.7C326.8,39.9,322.6,29.2,316.7,22.1z"/>
	</g>
	<g>
		<path fill="#FFFFFF" d="M9.5,17.6c10-12,36.6-24.5,63.2-1.5c11,9.6,12.3,28.3,11.2,38.4c-0.7,6.8-3,14.2-9,17.3
			c-7.4,3.8-17-1.6-19.9-9.4c0.7,5.2-2,19-12.4,20.3c-17.9,2.2-17.3-11-17.3-15.8c-1.4,2.4-1.6,3.5-2.9,4.9
			c-2.4,2.8-4.6,3.3-7.2,2.7C4.6,72.4,0.6,57.5,0,46.8C-0.6,35.3,3.5,24.7,9.5,17.6z"/>
	</g>
</g>
</svg>
