<?xml version="1.0" encoding="utf-8"?>
<!-- Generator: Adobe Illustrator 23.0.1, SVG Export Plug-In . SVG Version: 6.00 Build 0)  -->
<svg version="1.2" baseProfile="tiny" id="Layer_1" xmlns="http://www.w3.org/2000/svg" xmlns:xlink="http://www.w3.org/1999/xlink"
	 x="0px" y="0px" viewBox="0 0 1600 864" xml:space="preserve">
<circle fill="#E88338" cx="1421.6" cy="739.3" r="216"/>
<circle fill="#E88338" cx="1070.4" cy="546.5" r="216"/>
<circle fill="#E88338" cx="712.6" cy="532.9" r="216"/>
<circle fill="#E88338" cx="458" cy="582.9" r="216"/>
<circle fill="#E88338" cx="1472.1" cy="478.3" r="216"/>
<circle fill="#E88338" cx="184.2" cy="817.1" r="216"/>
<g>
	<polygon fill="#E88338" points="255.3,350.6 319.9,373.5 384.6,396.4 334.5,457.5 284.5,518.5 269.9,434.6 	"/>
	<polygon fill="#E88338" points="545.2,303.8 545,389.8 544.9,475.9 485.8,430.1 426.7,384.4 485.9,344.1 	"/>
</g>
<g>
	<polygon fill="#E88338" points="644.9,239.2 689.5,280.4 734,321.6 680.4,347.4 626.7,373.1 635.8,306.2 	"/>
	<polygon fill="#E88338" points="881.2,314.6 860.1,377.5 839.1,440.4 804.4,384.6 769.6,328.7 825.4,321.6 	"/>
</g>
<g>
	<polygon fill="#E88338" points="1256.1,242.5 1326.6,268 1397.2,293.4 1341.9,357.9 1286.6,422.5 1271.3,332.5 	"/>
	<polygon fill="#E88338" points="1574,196.7 1573.1,288.6 1572.1,380.6 1507.8,330.9 1443.5,281.1 1508.7,238.9 	"/>
</g>
<g>
	<polygon fill="#E88338" points="903.5,348.3 954.9,348.4 1006.2,348.5 978.9,390.9 951.6,433.2 927.6,390.8 	"/>
	<polygon fill="#E88338" points="1110.2,268.3 1123.6,314.6 1137.1,361 1086.2,347.5 1035.4,334.1 1072.8,301.2 	"/>
</g>
<g>
	<polygon fill="#E88338" points="0,629.8 56.9,630 113.8,630.1 83.5,686.4 53.3,742.8 26.6,686.3 	"/>
	<polygon fill="#E88338" points="229,523.3 243.9,585 258.9,646.6 202.5,628.7 146.1,610.9 187.6,567.1 	"/>
</g>
<path fill="#E88338" d="M402.7,844.6c195.5-61.8,370.5-91.7,433.5-93.7c73.2-2.3,219.8-38.4,307.7-7.8
	c87.9,30.6,70.1,71.6,80.5,87.5s105.9,47.7,105.9,47.7s102.5-65.6,48.5-158.4s-50-225.1-416.8-176.6s-446.2,63.1-515.7,123.6
	s-138.1,99.2-138.1,99.2l-31.4,78.5H402.7z"/>
<path fill="#E88338" d="M837.6,822.3c12.3-34.6,38.3,3.7,86.8-1.5c21.7-2.3,100-14,111-98.9c11-84.9,50.9-189,50.9-189l70.8,82.9
	c0,0-129.2,236.9-233.8,234.2S836.4,825.6,837.6,822.3z"/>
</svg>
