<?xml version="1.0" encoding="utf-8"?>
<!-- Generator: Adobe Illustrator 23.0.1, SVG Export Plug-In . SVG Version: 6.00 Build 0)  -->
<svg version="1.1" id="Layer_1" xmlns="http://www.w3.org/2000/svg" xmlns:xlink="http://www.w3.org/1999/xlink" x="0px" y="0px"
	 width="154px" height="168px" viewBox="0 0 154 168" enable-background="new 0 0 154 168" xml:space="preserve">
<path opacity="0.73" fill="#5BDAE8" d="M139.8,120.6c-4.5-4-30.4-25.9-39.5-34c-1.2-1.1-2.2-2-3-2.7l-6.7,17.8
	c-0.8,2-5.6,2-10.8,0.1c-5.2-2-8.8-5.2-8.1-7.2l5.6-14.8c-9.1-0.6-21.1-1.5-34.9-2c1.3,0.2,2.7,0.6,4.1,1.1c4.9,1.8,8.3,4.9,7.5,6.8
	s-5.3,2-10.2,0.2c-4.9-1.8-8.3-4.9-7.5-6.8c0.3-0.8,1.2-1.2,2.5-1.4c-4.5-0.1-9.1-0.2-13.9-0.3c-4.3,0-6.9,3-8.6,6.9
	c-2.1,5-6.3,7.7-0.1,18.1c4.8,8,23.3,36,28.2,44.1c5,8.1,3.3,9.8,14.7,9.2c11.4-0.6,53.6-1.9,63.1-3.2c9.6-1.3,9.7,0.3,13-8.3
	S144.2,124.7,139.8,120.6z"/>
<path opacity="0.73" fill="#CFE9FF" d="M98.1,53.3c-3.5-1.3-6.4-3.4-8.6-6L71.7,94.6c-0.8,2,2.9,5.2,8.1,7.2c5.2,2,10,1.9,10.8-0.1
	l17.8-47.2C105,54.9,101.5,54.6,98.1,53.3z"/>
<circle opacity="0.73" fill="#5BDAE8" cx="105.6" cy="33.3" r="21.3"/>
<ellipse transform="matrix(0.3522 -0.9359 0.9359 0.3522 -47.9146 95.7087)" opacity="0.73" fill="#FF601B" cx="45.2" cy="82.5" rx="3.8" ry="9.5"/>
</svg>
