<?xml version="1.0" encoding="utf-8"?>
<!-- Generator: Adobe Illustrator 23.0.1, SVG Export Plug-In . SVG Version: 6.00 Build 0)  -->
<svg version="1.1" id="Layer_1" xmlns="http://www.w3.org/2000/svg" xmlns:xlink="http://www.w3.org/1999/xlink" x="0px" y="0px"
	 viewBox="0 0 1600 864" style="enable-background:new 0 0 1600 864;" xml:space="preserve">
<style type="text/css">
	.st0{fill:#D15626;}
</style>
<path class="st0" d="M619.1,131.5c-45.1,0.5-69.4,32.8-41.3,113.4c72.1,206.6,9.5,188-144,136c-153.6-52.1-206-73.1-255.2-14.7
	c-49.2,58.4,16.2,75.9,56.4,123.4c40.3,47.5-0.3,63-68.4,77.5c-68.1,14.5-127.7,17.7-138,78.7c-10.3,61,126.3,48.9-18,133.8
	c-3.6,2.1-7.1,4.3-10.6,6.7V864h1196.5c-77.5-18.6-155.7-34.6-234.3-47.9C533,743.4,194,797.9,103.5,817.1
	c-74,15.8-92.1,21.2-96.4,22.7c14.8-5.5,259.9-95,629.5-104.9c279.5-7.4,719.6,81.1,935.1,129h28.3V590.3
	c-8.1-20.5-16.1-39.1-23.6-54.3c-50.7-102.7-91.9-48.2-96.5-17.3c-4.5,31-46.6,72.4-156.4-140.8
	c-109.8-213.2-210.1-227.4-259.1-91.1c-49,136.3-137.1,88.9-230.5-27.5C775.3,186.3,679,130.8,619.1,131.5L619.1,131.5z"/>
</svg>
