<?xml version="1.0" encoding="utf-8"?>
<!-- Generator: Adobe Illustrator 23.0.1, SVG Export Plug-In . SVG Version: 6.00 Build 0)  -->
<svg version="1.1" xmlns="http://www.w3.org/2000/svg" xmlns:xlink="http://www.w3.org/1999/xlink" x="0px" y="0px"
	 width="1050.9px" height="462.3px" viewBox="0 0 1050.9 462.3" enable-background="new 0 0 1050.9 462.3" xml:space="preserve">
<g id="Layer_2">
	<g id="Layer_3">
		<path opacity="0.44" fill="#FF2B6C" d="M159.5,257.1c0,0,432.2-157.2,566.9-206.1C784.7,29.7,899.2,81.2,950.7,154
			s54.6,225.9-24.3,271.3s-115.2,62.1-151.6,51.5c-36.4-10.6-172.8,57.6-172.8,57.6L480.8,586c0,0-63.7,79.6-127.3,109.1
			S123.1,733,59.4,622.4s-37.9-242.5,0-297.1S159.5,257.1,159.5,257.1z"/>
		
			<ellipse transform="matrix(0.866 -0.5 0.5 0.866 -17.7167 424.7589)" opacity="0.28" fill="#FFE0DB" cx="783.8" cy="245.4" rx="164.7" ry="182.7"/>
	</g>
	<path opacity="0.25" fill="#FFE0DB" d="M191.3,380.6c22.7-10.2,64.8-23.9,64.8-23.9l26.1,56.8l55.7-28.4l28.4,60.3l-54.6,23.9
		l26.1,52.3l-59.1,26.1l-27.3-50l-53.4,20.5l-30.7-55.9l48.9-24.8L191.3,380.6z"/>
	<path display="none" opacity="0.42" fill="#FFFFFF" d="M899.5,255.6c0,0-18.2,51.2-26.1,70.5c-8,19.3-30.7,26.1-58,10.2
		c-27.3-15.9-37.5-37.5-28.4-60.3s39.8-88.7,47.7-102.3s26.1-25,54.6-11.4c28.4,13.6,31.1,42,26.5,54.6S899.5,255.6,899.5,255.6z"/>
	<g>
		<path opacity="0.38" fill="#FFFFFF" d="M900.8,226.9c-11.6,8.1-19.8,10.3-35,3.7s-31.8-26.8-25.3-48c3.6-11.5,13.7-23.2,27.7-26.3
			c-16.5-1.2-27.7,7.5-33.5,17.4c-8,13.6-38.7,79.6-47.7,102.3c-9.1,22.7,1.1,44.3,28.4,60.3c27.3,15.9,50,9.1,58-10.2
			c8-19.3,26.1-70.5,26.1-70.5s11.7-26.1,16.3-38.7c1.3-3.7,2-8.7,1.7-14.3C916,212.3,910.1,220.4,900.8,226.9z M861.4,326.1
			c-11.6,8.1-19.8,10.3-35,3.7s-31.8-26.8-25.3-48c5.2-16.6,24.3-33.9,48.5-24.3c24.3,9.6,27.8,21.4,28.8,36.7
			C879.3,307.5,873,318.1,861.4,326.1z"/>
		<path opacity="0.38" fill="#FFFFFF" d="M917.5,202.6c0.4-2.5,0.5-5,0.3-7.7c-1-15.3-4.5-27.1-28.8-36.7c-7.5-3-14.6-3.4-20.9-2
			c6.3,0.4,13.3,2.3,21.1,6C909.5,172,916.6,189,917.5,202.6z"/>
		<path opacity="0.3" fill="#FF7042" d="M840.6,182.5c5.2-16.6,24.3-33.9,48.5-24.3c24.3,9.6,27.8,21.4,28.8,36.7
			c0.9,13.2-5.4,23.8-17.1,31.9c-11.6,8.1-19.8,10.3-35,3.7S834,203.8,840.6,182.5z"/>
		<path opacity="0.3" fill="#FF7042" d="M801.1,281.8c5.2-16.6,24.3-33.9,48.5-24.3s27.8,21.4,28.8,36.7
			c0.9,13.2-5.4,23.8-17.1,31.9c-11.6,8.1-19.8,10.3-35,3.7S794.6,303.1,801.1,281.8z"/>
	</g>
	<g>
		<path opacity="0.38" fill="#FFFFFF" d="M782.5,187.8c-11.6,8.1-19.8,10.3-35,3.7s-31.8-26.8-25.3-48c3.6-11.5,13.7-23.2,27.7-26.3
			c-16.5-1.2-27.7,7.5-33.5,17.4c-8,13.6-38.7,79.6-47.7,102.3c-9.1,22.7,1.1,44.3,28.4,60.3c27.3,15.9,50,9.1,58-10.2
			c8-19.3,26.1-70.5,26.1-70.5s11.7-26.1,16.3-38.7c1.3-3.7,2-8.7,1.7-14.3C797.7,173.3,791.8,181.4,782.5,187.8z M743.1,287.1
			c-11.6,8.1-19.8,10.3-35,3.7s-31.8-26.8-25.3-48c5.2-16.6,24.3-33.9,48.5-24.3c24.3,9.6,27.8,21.4,28.8,36.7
			C761,268.4,754.7,279,743.1,287.1z"/>
		<path opacity="0.38" fill="#FFFFFF" d="M799.2,163.6c0.4-2.5,0.5-5,0.3-7.7c-1-15.3-4.5-27.1-28.8-36.7c-7.5-3-14.6-3.4-20.9-2
			c6.3,0.4,13.3,2.3,21.1,6C791.2,132.9,798.4,150,799.2,163.6z"/>
		<path opacity="0.3" fill="#FF7042" d="M722.3,143.5c5.2-16.6,24.3-33.9,48.5-24.3s27.8,21.4,28.8,36.7
			c0.9,13.2-5.4,23.8-17.1,31.9c-11.6,8.1-19.8,10.3-35,3.7S715.7,164.7,722.3,143.5z"/>
		<path opacity="0.3" fill="#FF7042" d="M682.8,242.8c5.2-16.6,24.3-33.9,48.5-24.3c24.3,9.6,27.8,21.4,28.8,36.7
			c0.9,13.2-5.4,23.8-17.1,31.9c-11.6,8.1-19.8,10.3-35,3.7S676.3,264,682.8,242.8z"/>
	</g>
	<path opacity="0.62" fill="#FF7042" d="M41.7,230.6c32.4-18.6,68.5-30.2,97.8-54c14.1-11.5,26.1-26,33.7-42.2c12-0.2,24-0.5,36-0.9
		c20.5-0.8,41-2,61.4-4.3c10.8-1.2,21.6-2.6,32.3-4.4c10.2-1.6,16.6-3.1,26.6-3.2c2.1,0,4.2,0,6.3,0.2c0.6,0,1.1,0.1,1.4,0.1
		c1.1,0.2,2.2,0.4,3.2,0.6c2.1,0.5,4.1,1.1,6.1,1.8c0,0,0.1,0,0.2,0.1c0.6,0.3,1.9,0.8,2.1,0.9c3,1.5,5.5,3.5,8.4,5.1c0,0,0,0,0,0
		c0.6,0.5,1.3,1,1.9,1.6c1.5,1.3,3,2.7,4.4,4.1c10.4,10.1,18.9,22,28.7,32.7c0.9,1,1.8,1.9,2.7,2.8c11.2-4.1,22.5-8.2,33.8-12.3
		c-0.8-0.8-1.6-1.5-2.6-2.2c2.7,2.1-1.5-1.3-2.1-1.8c-1.2-1.1-2.4-2.1-3.5-3.2c-2.5-2.4-4.9-4.9-7.2-7.5
		c-4.7-5.2-9.1-10.6-13.5-15.9c-9.2-11-19.1-21.7-31.5-29.1c-16-9.5-34.3-11.1-52.5-8.8c-19.9,2.5-37.4,5.9-56.9,7.7
		c-25.6,2.4-51.3,3.5-77,4c0.5-6.5,0.3-13.2-0.8-20C175,44,135,14.5,96.6,27.5C76.3,34.4,56.5,52.7,60.9,76
		c3.4,17.7,16.6,34.7,30.6,45.4c13.1,10,28.6,12.7,44.4,13.3c-0.2,0.3-0.4,0.5-0.6,0.8c0.1-0.2-1.9,2.3-2.3,2.8
		c-1.4,1.6-2.8,3.1-4.2,4.6c-2.7,2.8-5.5,5.6-8.5,8.1c-1.4,1.2-2.8,2.4-4.2,3.5c-0.1,0.1-0.2,0.2-0.3,0.3c-0.9,0.7-1.8,1.3-2.6,1.9
		c-28.8,20.6-63.1,31.2-93.1,49.5c-28.3,17.2-52.7,39.8-72.6,66.3c-42,55.9-57.1,130.4-38.6,198c2.3,8.4,5.2,16.5,8.5,24.5
		c3.2,7.7,10.7,14.1,19.7,11.2c7.4-2.4,14.6-11.4,11.2-19.7c-3.6-8.5-6.6-17.3-9-26.2c-1.1-4.2-2.1-8.4-2.9-12.6c-0.4-2-0.8-4-1.1-6
		c-0.2-1.1-0.4-2.3-0.5-3.4c-0.1-0.4-0.1-0.7-0.1-1c0-0.1,0-0.4-0.1-0.8c-1.1-9.2-1.6-18.4-1.5-27.7c0.1-4.3,0.2-8.7,0.6-13
		c0.2-2.3,0.4-4.6,0.6-6.9c0.1-0.9,0.2-1.7,0.3-2.6c0-0.4,0.2-1.7,0.3-2.3c1.3-9,3.2-17.9,5.7-26.7c1.2-4.2,2.5-8.3,3.9-12.4
		c0.7-1.9,1.4-3.8,2.1-5.7c0.4-1,0.8-1.9,1.1-2.9c0,0.1,0.8-1.8,1-2.5c0.3-0.6,0.6-1.4,0.7-1.6c0.4-1,0.9-1.9,1.3-2.8
		c0.8-1.7,1.6-3.3,2.4-4.9c2-4,4-7.9,6.2-11.7c4-7,8.4-13.8,13.1-20.4c1.1-1.5,2.2-3,3.3-4.5c0.2-0.3,2.5-3.1,2.7-3.4
		c2.6-3.2,5.4-6.4,8.2-9.5c5.6-6.2,11.6-12.1,17.8-17.6c2.7-2.4,5.5-4.8,8.3-7.1c0.3-0.2,3.1-2.4,3.4-2.7c1.7-1.3,3.4-2.6,5.2-3.8
		C27.8,239,34.6,234.6,41.7,230.6z M117.4,99.7c-0.8-0.4-1.5-0.8-2.3-1.2c-1.5-0.8-3-1.7-4.4-2.7c-0.2-0.1-1-0.8-1.5-1.1
		c-0.2-0.2-0.5-0.4-0.5-0.5c-1.6-1.5-3.2-3-4.8-4.7c-0.4-0.4-2.2-2.5-2.3-2.6c-0.9-1.2-1.7-2.4-2.5-3.6C97,80.1,95,76.6,93.4,73
		c-0.1-0.2-0.1-0.3-0.2-0.4c-0.4-1-0.9-2.3-1-3.4c0.1,0.7-0.2,1.6-0.1,0c0-0.1,0.1-0.3,0.3-0.7c0-0.1,0-0.1,0-0.2
		c0.1-0.1,0.1-0.2,0.2-0.3c0.3-0.4,0.5-0.9,0.8-1.3c0.2-0.3,0.7-0.9,0.9-1.1c0.9-0.9,1.8-1.8,2.8-2.7c0.3-0.2,0.4-0.4,0.5-0.5
		c0.6-0.4,1.2-0.8,1.8-1.2c1.5-1,3.2-1.9,4.8-2.6c-0.7,0.4,2.7-0.9,3.3-1c0.7-0.2,1.5-0.4,2.2-0.6c0,0,1.8-0.3,2.6-0.5
		c0.6,0,1.4-0.1,1.6-0.1c0.8,0,1.5-0.1,2.3-0.1c0.9,0,6.3,0.8,3.4,0.1c1.7,0.4,3.4,0.7,5.1,1.2c0.7,0.2,1.4,0.5,2.1,0.7
		c0.3,0.1,0.5,0.2,0.7,0.2c0.1,0,0.2,0.1,0.3,0.1c1.6,0.7,3.1,1.6,4.6,2.4c0.5,0.3,3.8,2.6,3.4,2.2c1.2,1,2.3,2,3.3,3
		c0.5,0.5,1,1.1,1.6,1.6c0,0,1.1,1.3,1.6,1.8c0.3,0.5,0.9,1.2,1,1.3c0.5,0.7,0.9,1.4,1.3,2.1c1.1,1.8,2.1,3.6,2.9,5.5
		c0,0,0,0.2,0.3,0.9c0.4,1.1,0.7,2.2,1.1,3.3c0.6,2.2,1.2,4.5,1.5,6.8c0,0.1,0,0.2,0,0.2c0,0.2,0,0.4,0,0.7c0.1,0.8,0.1,1.6,0.2,2.4
		c0.1,2,0.1,4.1,0,6.1c0,0.8-0.1,1.5-0.2,2.3c0,0.1-0.1,0.6-0.1,1c-3,0-5.9,0-8.9,0C131.6,102.8,125.7,102.7,117.4,99.7z"/>
</g>
<g id="Layer_4">
</g>
</svg>
