<svg xmlns="http://www.w3.org/2000/svg" viewBox="0 0 633.6 338.29"><defs><style>.a{fill:#fff;}.b{isolation:isolate;}</style></defs><title>Game_Logo</title><path class="a" d="M40.17,48.72c8.48-4.21,66.12,51.16,79.45,108.74,1.07,4.63,2.21,4.63,2.78,0,6.62-54,74.21-132.17,84.13-130.88,10.37,1.35,50,86.88,17.3,198.54-8.59,29.3-27.1,61.81-37,72.07-9.61,9.95-24.08,4.71-20-7.73,5.81-17.54,24.29-53.41,33.22-81.89C216.89,154,203.62,100,198.7,80.9c-1.47-5.69-1.7-5-4.75-1.22-12.56,15.66-34,50.85-56.72,117.4a265.71,265.71,0,0,0-11.88,50.78c-1.06,8.1-3.08,10-5.25.1-1.68-7.58-2.82-15.8-4.37-21.94-3.76-14.81-14-52.62-30-81a458,458,0,0,0-27.54-42.57c-3.62-5.1-4.38-4.5-4.74,1.39-.68,11-5.8,44.68,3.14,84.63,7.73,34.55,26.81,79,32.64,96,5.44,15.89-8.93,21.07-17,12.36C58.09,281.53,41.08,235.47,31.31,197,13.64,127.28,34.29,51.64,40.17,48.72Z"/><path class="a" d="M305.26,242.39c18.1-2.79,28.48-13,35.08-24.61,8.57-15,12.28-39.37,10.73-59.68-2.51-32.84-5.75-39.65-10-49.68-2.95-7-8.95-13.71-14.61-11.7-6.89,2.43-5.06,13.28-3.82,18.91s5.08,23.13,5.2,41.6,2,37-7.07,52c-7.49,12.38-24.61,17.09-34.5,7.44-15.94-15.57-10.92-75.71-7.74-91,3.63-17.53,1.87-25.71-4.52-26.9-5-.94-9.58,9.9-12.27,18.37s-7.21,39.36-7.41,64.39,3.82,41.41,13,50.46S291.14,244.57,305.26,242.39Z"/><path class="a" d="M418.81,97c-18.08,2.85-28.43,13.12-35,24.72-8.52,15-12.15,39.4-10.54,59.71,2.61,32.83,4.84,40.32,9.12,50.33,3,7,10,13,15.68,11,6.88-2.46,6.3-13.7,5-19.32s-6.43-22.73-6.61-41.2-2.12-37,6.9-52c7.45-12.4,24.48-17.08,34.48-7.55,18.28,17.41,8.52,75.58,5.4,90.93-3.58,17.54-.27,25.33,6.09,26.68,7.55,1.61,11.81-9.66,14.62-18.09,4-12.13,5.82-39.41,5.94-64.44s-3.94-41.4-13.15-50.41S432.93,94.73,418.81,97Z"/><g class="b"><g class="b"><path class="a" d="M224.37,283.92a1.1,1.1,0,0,1-.49-.1,1.06,1.06,0,0,1-.35-.28,1.22,1.22,0,0,1-.21-.39,1.41,1.41,0,0,1-.07-.45,2,2,0,0,1,.1-.55c.07-.23.16-.49.28-.78s.23-.6.36-.91l.38-.91c.12-.29.23-.56.32-.81s.15-.44.18-.58.08-.34.13-.56.11-.46.18-.72.13-.53.2-.82.13-.57.2-.86l-.45.07-.58.06c-.29,0-.57.07-.85.12l-.87.18-.91.21-1,.23c-.52.11-1.05.24-1.58.38a6.43,6.43,0,0,1-1.65.21.87.87,0,0,1-.49-.14,1.5,1.5,0,0,0-.5-.2c-.17.28-.34.58-.5.9s-.3.65-.43,1-.25.67-.36,1-.2.64-.28.93a4.91,4.91,0,0,0-.11.61c0,.25-.06.51-.08.77s-.06.51-.08.74-.05.43-.08.57a1.29,1.29,0,0,1-.16.39,1.93,1.93,0,0,1-.29.35,1.7,1.7,0,0,1-.38.26,1.06,1.06,0,0,1-.42.09.84.84,0,0,1-.6-.21,1.58,1.58,0,0,1-.37-.54,2.65,2.65,0,0,1-.19-.71,4.51,4.51,0,0,1-.06-.7,7.52,7.52,0,0,1,.2-1.66,12.6,12.6,0,0,1,.54-1.76,16.31,16.31,0,0,1,.79-1.79c.3-.6.63-1.2,1-1.8s.65-1.16,1.08-1.86.91-1.43,1.44-2.17,1.11-1.47,1.73-2.18a17.35,17.35,0,0,1,1.93-1.91,10.72,10.72,0,0,1,2.06-1.35,4.76,4.76,0,0,1,2.09-.51,3.75,3.75,0,0,1,1.83.4,3.07,3.07,0,0,1,1.17,1.06,4.48,4.48,0,0,1,.61,1.57,9.65,9.65,0,0,1,.18,1.9,16.29,16.29,0,0,1-.11,1.82c-.08.62-.17,1.23-.28,1.83s-.23,1.18-.36,1.73-.24,1.05-.35,1.5l-.46,1.8c0,.05-.05.15-.1.31l-.18.57-.25.73c-.09.26-.19.51-.28.76l-.26.7-.22.51h0c-.06.23-.12.46-.19.7a2.66,2.66,0,0,1-.29.64,1.75,1.75,0,0,1-.48.46A1.39,1.39,0,0,1,224.37,283.92Zm.67-16.5a3.11,3.11,0,0,0-1.18.24,6.93,6.93,0,0,0-1.15.64,7.86,7.86,0,0,0-1.1.93q-.54.52-1,1.08t-.9,1.11l-.77,1-.13.2a1.89,1.89,0,0,0-.17.28,3.07,3.07,0,0,0-.17.31c0,.11-.1.21-.13.3h1.36a15.51,15.51,0,0,0,1.68-.11c.64-.07,1.26-.15,1.88-.25s1.19-.19,1.71-.29l1.17-.23a3,3,0,0,0,.1-.46c0-.2.06-.41.09-.65s0-.49.06-.76,0-.54,0-.82,0-.49,0-.79a3.21,3.21,0,0,0-.16-.83,1.67,1.67,0,0,0-.4-.67A1,1,0,0,0,225,267.42Z"/><path class="a" d="M235.52,267.83c.06-.23.12-.47.2-.73a3.35,3.35,0,0,1,.32-.72,1.87,1.87,0,0,1,.51-.54,1.43,1.43,0,0,1,.81-.21,1.39,1.39,0,0,1,.82.25,7.39,7.39,0,0,1,.65.52,2.18,2.18,0,0,1,.66.91,16.44,16.44,0,0,1,.65,1.69c.23.67.47,1.42.73,2.27s.54,1.73.86,2.65.66,1.86,1,2.83a28.77,28.77,0,0,0,1.32,2.81l.28.5c.1.19.21.36.32.53a3.28,3.28,0,0,0,.31.42c.09.12.16.17.2.17s.06-.06.09-.19.08-.29.12-.48.09-.37.14-.57a4,4,0,0,1,.14-.47c.16-.4.35-.87.54-1.39s.42-1.16.66-1.9.51-1.62.8-2.64.61-2.23,1-3.63c.09-.34.19-.73.29-1.17s.2-.87.29-1.33.17-.89.24-1.32.12-.81.15-1.12c0-.05,0-.15,0-.28a4.4,4.4,0,0,1,.05-.45c0-.16,0-.34.08-.52a3.15,3.15,0,0,1,.14-.49,1.21,1.21,0,0,1,.22-.37.4.4,0,0,1,.31-.15,2.15,2.15,0,0,1,.46.06,1.87,1.87,0,0,1,.49.15,4.3,4.3,0,0,1,.46.83,3.51,3.51,0,0,1,.2,1.3,8.63,8.63,0,0,1-.1,1.23c-.07.48-.16,1-.27,1.54s-.24,1.12-.37,1.7-.28,1.13-.42,1.66-.27,1-.4,1.47-.24.81-.32,1.1l-.5,1.57c-.17.54-.36,1.11-.56,1.7s-.44,1.23-.68,1.89-.51,1.37-.81,2.13c-.13.34-.28.68-.45,1a5.45,5.45,0,0,1-.59.93,3.1,3.1,0,0,1-.74.67,1.75,1.75,0,0,1-.93.25,2.32,2.32,0,0,1-.63-.08,1,1,0,0,1-.55-.35,15,15,0,0,1-1.92-2.84,30.29,30.29,0,0,1-1.51-3.32c-.45-1.16-.84-2.33-1.18-3.51s-.66-2.31-.94-3.4l-.08-.3c0-.12-.06-.25-.1-.37s-.06-.25-.09-.35a1.09,1.09,0,0,0-.1-.26.17.17,0,0,0-.14-.1s-.12.1-.2.29-.16.41-.24.65-.15.48-.21.71l-.13.43c-.06.23-.15.56-.28,1s-.26.9-.41,1.44-.32,1.1-.5,1.7-.36,1.18-.52,1.73-.33,1.08-.48,1.55-.27.86-.37,1.15-.17.52-.29.88l-.34,1.09c-.11.37-.22.7-.32,1l-.18.59a1.6,1.6,0,0,1-.47.76,1,1,0,0,1-.62.25.68.68,0,0,1-.4-.13,1.88,1.88,0,0,1-.35-.34,2,2,0,0,1-.25-.43,1,1,0,0,1-.1-.41,1.19,1.19,0,0,1,.07-.34c0-.15.11-.42.21-.78l.34-1.36Z"/><path class="a" d="M251.88,281.8a3,3,0,0,1,1.24-.54,12.75,12.75,0,0,1,1.32-.18l3.3-13.34h-.3l-.54,0a4.08,4.08,0,0,1-.59-.11,1,1,0,0,1-.43-.23c0-.06-.1-.14-.17-.24s-.13-.21-.19-.33-.11-.24-.16-.36a1.24,1.24,0,0,1-.06-.37.62.62,0,0,1,.26-.51,1.88,1.88,0,0,1,.63-.33A4.81,4.81,0,0,1,257,265a7.79,7.79,0,0,1,.79,0c1.11,0,2.13,0,3.08.1a14.38,14.38,0,0,1,2.65.43,10.42,10.42,0,0,1,2.32.93,9.36,9.36,0,0,1,2.08,1.63,7.55,7.55,0,0,1,.7.85,6.53,6.53,0,0,1,.59,1,7.06,7.06,0,0,1,.42,1.2,5.81,5.81,0,0,1,.16,1.35c0,.25,0,.52,0,.8a5.7,5.7,0,0,1-.11.73,10.15,10.15,0,0,1-1.07,2.71,10.46,10.46,0,0,1-1.61,2.09,11,11,0,0,1-2,1.59,16.8,16.8,0,0,1-2.27,1.17,22.82,22.82,0,0,1-2.39.88c-.8.24-1.59.46-2.35.65h0a10,10,0,0,1-1.11.28c-.39.08-.79.15-1.2.2s-.81.09-1.21.12-.77,0-1.12,0a5.48,5.48,0,0,1-1-.07,2.55,2.55,0,0,1-.64-.2.94.94,0,0,1-.35-.28.62.62,0,0,1-.1-.35,1.16,1.16,0,0,1,.15-.54A1.74,1.74,0,0,1,251.88,281.8Zm5.8-3.78q-.15.68-.33,1.38c-.11.48-.22.94-.32,1.4l.3-.06.78-.2,1.14-.33c.43-.13.89-.29,1.36-.48s1-.4,1.51-.66a16.64,16.64,0,0,0,1.58-.89,17,17,0,0,0,1.49-1.07,8.69,8.69,0,0,0,1.25-1.25,6,6,0,0,0,.86-1.39,3.7,3.7,0,0,0,.33-1.53,3.77,3.77,0,0,0-.32-1.52,5.36,5.36,0,0,0-.85-1.33,6.51,6.51,0,0,0-1.24-1.09,8.92,8.92,0,0,0-1.47-.83,8.31,8.31,0,0,0-1.55-.52,6.63,6.63,0,0,0-1.48-.18,50.84,50.84,0,0,0-1.69,5.2C258.56,274.42,258.12,276.21,257.68,278Z"/></g><g class="b"><path class="a" d="M221.19,302.66c.33-1.46.71-2.93,1.13-4.42l1.22-4.41.44-1.66c.13-.5.23-.95.32-1.35s.16-.77.2-1.1a7.85,7.85,0,0,0,.07-.92v-.18c0-.06,0-.14,0-.24a2.86,2.86,0,0,0-.58.14c-.31.1-.66.23-1.07.39s-.84.33-1.29.53-.88.4-1.26.6l-.77.4-.54.24a1.86,1.86,0,0,1-.41.12,2.34,2.34,0,0,1-.38,0,1,1,0,0,1-.71-.31,1.21,1.21,0,0,1-.29-.82,1.93,1.93,0,0,1,.06-.51,1.38,1.38,0,0,1,.18-.39,1.75,1.75,0,0,1,.34-.32,3.8,3.8,0,0,1,.51-.31,29.31,29.31,0,0,1,6.75-2.55,29.63,29.63,0,0,1,6.86-.81h.66c.25,0,.51,0,.78.05s.53.05.79.09a4.89,4.89,0,0,1,.67.14,1.08,1.08,0,0,1,.53.38,1,1,0,0,1,.22.62,2.76,2.76,0,0,1,0,.51,1.15,1.15,0,0,1-.16.44.92.92,0,0,1-.78.41l-1.09-.13a8.38,8.38,0,0,0-1.23-.08c-.83,0-1.65,0-2.47.06a13.48,13.48,0,0,0-2.53.35s-.07.06-.08.13a2,2,0,0,0,0,.29c0,.47-.07.89-.12,1.25s-.13.72-.22,1.08-.2.75-.34,1.17-.28.92-.46,1.5-.38,1.28-.61,2.1-.49,1.79-.77,2.94l-.64,2.56c-.14.59-.26,1.12-.34,1.59s-.16.93-.22,1.39a.75.75,0,0,1-.4.42,1.7,1.7,0,0,1-.83.2.89.89,0,0,1-.5-.15,1.26,1.26,0,0,1-.37-.39,1.81,1.81,0,0,1-.2-.52A1.32,1.32,0,0,1,221.19,302.66Z"/><path class="a" d="M232.2,304.38a2.12,2.12,0,0,1,0-.38c0-.17.07-.33.12-.5s.09-.34.14-.5.08-.29.11-.38L238,285.1a.73.73,0,0,1,.14-.16.61.61,0,0,1,.18-.11.68.68,0,0,1,.27-.05h.22a1,1,0,0,1,.49.1.92.92,0,0,1,.32.26,1,1,0,0,1,.16.39,2.24,2.24,0,0,1,.05.46,3.64,3.64,0,0,1,0,.45c0,.15-.05.3-.08.44s0,.28-.08.41-.06.22-.07.29l-2.75,9.36,1.26-.12,4.27-1c1.46-.33,2.88-.65,4.28-.95a1,1,0,0,0,.42-.49,5.87,5.87,0,0,0,.37-1l.39-1.4q.21-.8.51-1.77l.28-.91c.11-.44.21-.89.31-1.35a9.59,9.59,0,0,1,.33-1.26,2.92,2.92,0,0,1,.5-.93,1,1,0,0,1,.78-.36,1.27,1.27,0,0,1,1,.43,1.55,1.55,0,0,1,.37,1.07,5.11,5.11,0,0,1-.31,1.37c-.2.65-.46,1.43-.77,2.35-.11.34-.24.69-.37,1.05s-.25.71-.36,1-.2.63-.27.91a3,3,0,0,0-.11.67,1.83,1.83,0,0,0,.07.46,2,2,0,0,1,.07.5,1.57,1.57,0,0,1-.32,1,4.6,4.6,0,0,1-.87.8c0,.07,0,.18-.07.33a4.48,4.48,0,0,1-.12.46l-.17.67c-.12.49-.22,1-.31,1.45s-.16,1-.22,1.44l-.21,1.43c-.08.47-.17.94-.29,1.41a1.11,1.11,0,0,1-.23.46,1.4,1.4,0,0,1-.38.35,2.13,2.13,0,0,1-.45.23,1.53,1.53,0,0,1-.45.08.86.86,0,0,1-.52-.15,1.24,1.24,0,0,1-.31-.34,1.56,1.56,0,0,1-.15-.41,2.81,2.81,0,0,1,0-.36c0-.1,0-.28.05-.52s.07-.52.12-.85.12-.67.19-1.05l.21-1.15c.17-.9.36-1.88.58-2.94h-.09a5,5,0,0,0-.74.07l-.95.21-.74.21-1.13.3-1.37.37-1.45.4-3.58,1c-.16.35-.32.72-.46,1.12s-.28.8-.41,1.21-.23.81-.33,1.21l-.29,1.12a.92.92,0,0,1-.16.31,1.75,1.75,0,0,1-.29.32,1.91,1.91,0,0,1-.34.24.75.75,0,0,1-.34.09.82.82,0,0,1-.48-.13.9.9,0,0,1-.31-.33,1.57,1.57,0,0,1-.17-.46A2.92,2.92,0,0,1,232.2,304.38Z"/><path class="a" d="M252.5,303.8a4.32,4.32,0,0,1,.13-1q.45-1.8,1.05-3.51c.4-1.15.76-2.29,1.09-3.43l.81-2.86c.21-.78.41-1.45.57-2s.32-1,.46-1.44.3-.8.47-1.2c.1-.24.22-.48.35-.74a4.77,4.77,0,0,1,.41-.7,2.49,2.49,0,0,1,.47-.53.76.76,0,0,1,.51-.21,1.53,1.53,0,0,1,.82.18.86.86,0,0,1,.35.33l.12.54a5.08,5.08,0,0,0,.51-.08l.64-.12.6-.13.42-.12c.58-.16,1.12-.3,1.61-.41s1-.21,1.41-.28.86-.13,1.27-.17.81-.05,1.22-.05a6.53,6.53,0,0,1,1,.06,2.65,2.65,0,0,1,.61.18.7.7,0,0,1,.31.27.59.59,0,0,1,.09.32.71.71,0,0,1-.09.33,1,1,0,0,1-.28.34,2,2,0,0,1-.52.28,3,3,0,0,1-.79.16l-.55.09-.93.16-.94.17-.62.12h0l-.38.1-.72.19-.91.26-1,.28-.89.27-.66.2a3.24,3.24,0,0,0-1.26.84,4.12,4.12,0,0,0-.71,1.17,3.54,3.54,0,0,0-.16.4c-.07.19-.15.4-.23.64s-.18.5-.27.78l-.28.77c-.09.25-.16.47-.23.68s-.11.35-.14.44a1.29,1.29,0,0,0-.05.24,1.37,1.37,0,0,0,0,.16s0,.08,0,.08a3.87,3.87,0,0,0,.83-.18l1.46-.44,1.79-.57,1.84-.57,1.56-.44a4.35,4.35,0,0,1,1-.17.93.93,0,0,1,.62.15.47.47,0,0,1,.16.33,1.17,1.17,0,0,1-.34.83,2.87,2.87,0,0,1-.84.62,4.24,4.24,0,0,1-.58.23l-.93.31-.94.31-.65.21-2.1.82-1.31.53-.77.31-.5.18-.51.14-.76.18a5.75,5.75,0,0,0-.28.84c-.11.37-.21.76-.3,1.16s-.18.77-.25,1.11a5.4,5.4,0,0,0-.1.71.63.63,0,0,0,.07.35.29.29,0,0,0,.16.15.39.39,0,0,0,.18,0h.15a7.83,7.83,0,0,0,1.52-.18,14,14,0,0,0,1.76-.49,9,9,0,0,0,1.45-.63l1.17-.64a8.36,8.36,0,0,1,1.06-.5,3.26,3.26,0,0,1,1.14-.22l.31,0a1,1,0,0,1,.34.1.63.63,0,0,1,.26.19.38.38,0,0,1,.07.3,1.42,1.42,0,0,1-.38.75,4.23,4.23,0,0,1-.83.71,10.68,10.68,0,0,1-1.12.66c-.42.21-.84.41-1.27.6s-.85.36-1.26.52l-1.11.4a15,15,0,0,1-2.36.62,12.51,12.51,0,0,1-2.06.2,2.62,2.62,0,0,1-1.53-.38A1.42,1.42,0,0,1,252.5,303.8Z"/></g></g><g class="b"><path class="a" d="M455.74,302.3c.33-1.46.71-2.93,1.13-4.42s.82-3,1.22-4.42c.16-.6.31-1.15.44-1.65s.23-.95.32-1.35.16-.77.2-1.1a7.85,7.85,0,0,0,.07-.92v-.18c0-.06,0-.14,0-.24a2.86,2.86,0,0,0-.58.14c-.31.1-.66.23-1.07.39s-.84.33-1.29.53-.88.4-1.26.6l-.77.4-.54.24a1.86,1.86,0,0,1-.41.12,2.34,2.34,0,0,1-.38,0,1,1,0,0,1-.71-.31,1.21,1.21,0,0,1-.29-.82,1.93,1.93,0,0,1,.06-.51,1.38,1.38,0,0,1,.18-.39,1.75,1.75,0,0,1,.34-.32,3.8,3.8,0,0,1,.51-.31,29.31,29.31,0,0,1,6.75-2.55,29.63,29.63,0,0,1,6.86-.81h.66c.25,0,.51,0,.78.05s.53.05.79.09a4.89,4.89,0,0,1,.67.14,1.08,1.08,0,0,1,.53.38,1,1,0,0,1,.22.62,2.76,2.76,0,0,1,0,.51,1.15,1.15,0,0,1-.16.44.92.92,0,0,1-.78.41l-1.09-.14a10,10,0,0,0-1.23-.07c-.83,0-1.65,0-2.47.06a14.32,14.32,0,0,0-2.53.34.18.18,0,0,0-.08.14,2,2,0,0,0,0,.29c0,.47-.07.89-.12,1.25s-.13.72-.22,1.08-.2.75-.34,1.17-.28.91-.46,1.5-.38,1.28-.61,2.1-.49,1.79-.77,2.94l-.64,2.56c-.14.59-.26,1.12-.34,1.59s-.16.93-.22,1.39a.75.75,0,0,1-.4.42,1.7,1.7,0,0,1-.83.2.89.89,0,0,1-.5-.15,1.26,1.26,0,0,1-.37-.39,1.56,1.56,0,0,1-.2-.52A1.32,1.32,0,0,1,455.74,302.3Z"/><path class="a" d="M467.58,297.71a13.34,13.34,0,0,1,.68-2,20.4,20.4,0,0,1,1.06-2.08,21.26,21.26,0,0,1,1.35-2.05c.5-.67,1-1.32,1.58-1.95s1.14-1.22,1.73-1.78,1.19-1.07,1.79-1.54a2.6,2.6,0,0,1,.77-.38,3.08,3.08,0,0,1,.75-.09,2.2,2.2,0,0,1,.76.12,2,2,0,0,1,.66.46,1.45,1.45,0,0,0,.22.21.37.37,0,0,0,.22.09s0,0,.07-.06a.85.85,0,0,0,.09-.14,1.16,1.16,0,0,1,.11-.16.34.34,0,0,1,.16-.13,1.58,1.58,0,0,1,.53-.13,4.44,4.44,0,0,1,.63,0,3.18,3.18,0,0,1,2.12.83,6.19,6.19,0,0,1,1.52,2.24,7.47,7.47,0,0,1,.52,2.81,11.9,11.9,0,0,1-.39,2.9,13.82,13.82,0,0,1-1,2.67,14.66,14.66,0,0,1-1.51,2.42A14,14,0,0,1,480.1,302a13,13,0,0,1-2.26,1.61,11.71,11.71,0,0,1-2.51,1.05,9.53,9.53,0,0,1-2.65.37,6.18,6.18,0,0,1-2.25-.38,4.59,4.59,0,0,1-1.68-1.08,4.72,4.72,0,0,1-1.06-1.66,6,6,0,0,1-.36-2.14,8.68,8.68,0,0,1,.06-1A8,8,0,0,1,467.58,297.71Zm2.23.88a5.45,5.45,0,0,0-.15,1.19,3.14,3.14,0,0,0,.26,1.3,2.54,2.54,0,0,0,.72.93,3.34,3.34,0,0,0,1.13.57,5,5,0,0,0,1.43.19,6.17,6.17,0,0,0,1.87-.29,8,8,0,0,0,1.87-.84,10.78,10.78,0,0,0,1.75-1.33,11.67,11.67,0,0,0,1.57-1.77,14.15,14.15,0,0,0,1.27-2.15,13.11,13.11,0,0,0,.91-2.46,6.42,6.42,0,0,0,.19-1,8.74,8.74,0,0,0,.06-1,6.43,6.43,0,0,0-.17-1.47,3.65,3.65,0,0,0-.57-1.23,2.87,2.87,0,0,0-1-.87,3.59,3.59,0,0,0-1.58-.32.25.25,0,0,0-.21.11,1.92,1.92,0,0,0-.15.29l-.15.3a1,1,0,0,1-.23.28,1,1,0,0,1-.34.21,1.46,1.46,0,0,1-.51.07.8.8,0,0,1-.39-.09A1.68,1.68,0,0,1,477,289l-.14-.13a.17.17,0,0,0-.12-.05.69.69,0,0,0-.3.11,3.68,3.68,0,0,0-.4.25l-.4.3c-.12.11-.22.2-.29.28-.6.62-1.2,1.29-1.79,2a26.85,26.85,0,0,0-1.64,2.25,19.48,19.48,0,0,0-1.31,2.34A10.37,10.37,0,0,0,469.81,298.59Z"/></g><path class="a" d="M282.18,299.8q1-4.89,2.24-9.87t2.42-9.87c.33-1.36.62-2.59.88-3.7s.46-2.12.64-3,.3-1.72.39-2.46a17.49,17.49,0,0,0,.13-2v-.94a5.11,5.11,0,0,0-1.16.32c-.6.22-1.31.5-2.12.86s-1.67.75-2.56,1.19-1.73.89-2.5,1.34l-1.53.88a10.64,10.64,0,0,1-1.06.55,3.33,3.33,0,0,1-.81.26,3.84,3.84,0,0,1-.76.08,1.79,1.79,0,0,1-1.4-.71,2.76,2.76,0,0,1-.59-1.83,5.35,5.35,0,0,1,.11-1.13,3,3,0,0,1,.37-.87,3.28,3.28,0,0,1,.67-.72,6.84,6.84,0,0,1,1-.69,53.39,53.39,0,0,1,13.4-5.7,52.57,52.57,0,0,1,13.61-1.82h1.3c.51,0,1,.06,1.56.11s1,.11,1.56.2a12.21,12.21,0,0,1,1.33.31,2,2,0,0,1,1,.86,2.35,2.35,0,0,1,.45,1.38,7.34,7.34,0,0,1-.1,1.15,3.16,3.16,0,0,1-.32,1,1.87,1.87,0,0,1-.62.66,1.62,1.62,0,0,1-.93.26l-2.16-.3a16.59,16.59,0,0,0-2.44-.18c-1.64,0-3.28,0-4.91.14a24.9,24.9,0,0,0-5,.78c-.09,0-.15.14-.17.31s-.06.42-.07.63c0,1.06-.13,2-.23,2.8s-.25,1.61-.43,2.42-.41,1.67-.67,2.6-.57,2.06-.92,3.36-.75,2.87-1.21,4.69-1,4-1.54,6.58l-1.25,5.72c-.3,1.31-.53,2.5-.69,3.55s-.31,2.09-.44,3.11a1.59,1.59,0,0,1-.8.94,2.86,2.86,0,0,1-1.63.44,1.52,1.52,0,0,1-1-.34,2.59,2.59,0,0,1-.74-.87,3.61,3.61,0,0,1-.39-1.16A3,3,0,0,1,282.18,299.8Z"/><path class="a" d="M300,303.66a5.16,5.16,0,0,1,.1-.87c.06-.36.13-.74.22-1.12l.27-1.11c.09-.36.17-.63.23-.85l10.59-39.16a1.93,1.93,0,0,1,.29-.35,1,1,0,0,1,.36-.25,1.23,1.23,0,0,1,.53-.11H313a2,2,0,0,1,1,.23,1.73,1.73,0,0,1,.62.58,2.2,2.2,0,0,1,.33.86,5.55,5.55,0,0,1,.09,1,8.39,8.39,0,0,1-.06,1c0,.35-.1.68-.15,1s-.11.63-.17.9-.11.49-.14.65L309.1,287l2.48-.26q4.17-1,8.49-2.14t8.5-2.14a2.18,2.18,0,0,0,.83-1.09,13.57,13.57,0,0,0,.72-2.15c.24-.88.5-1.92.77-3.11s.62-2.51,1-4l.54-2c.23-1,.44-2,.62-3a23.1,23.1,0,0,1,.67-2.82,6.72,6.72,0,0,1,1-2.07,1.85,1.85,0,0,1,1.55-.81,2.44,2.44,0,0,1,2.06.95,3.83,3.83,0,0,1,.73,2.4,12.86,12.86,0,0,1-.61,3.07q-.61,2.15-1.53,5.24c-.23.77-.47,1.56-.73,2.36s-.51,1.58-.72,2.31-.4,1.42-.54,2a7.33,7.33,0,0,0-.21,1.48,4.14,4.14,0,0,0,.13,1,4.61,4.61,0,0,1,.13,1.11,3.7,3.7,0,0,1-.63,2.21,9.41,9.41,0,0,1-1.72,1.79,7.36,7.36,0,0,1-.15.74c-.06.33-.13.68-.22,1l-.34,1.5c-.24,1.08-.45,2.16-.61,3.24s-.32,2.16-.45,3.22-.27,2.12-.42,3.18-.33,2.11-.56,3.15a2.85,2.85,0,0,1-.46,1,3.52,3.52,0,0,1-.76.78,4,4,0,0,1-.9.5,2.44,2.44,0,0,1-.89.18,1.56,1.56,0,0,1-1-.33,2.39,2.39,0,0,1-.62-.76,3.67,3.67,0,0,1-.3-.92,5.27,5.27,0,0,1-.07-.79q0-.36.09-1.17c.06-.54.14-1.17.25-1.9s.22-1.51.36-2.35.28-1.7.42-2.57c.33-2,.72-4.19,1.15-6.57H327a8.07,8.07,0,0,0-1.47.16c-.52.11-1.15.26-1.88.46-.33.12-.82.27-1.48.47l-2.24.68-2.71.82-2.89.89-7.09,2.18q-.5,1.14-.93,2.49c-.29.89-.55,1.8-.8,2.71s-.46,1.81-.66,2.69l-.57,2.51a2.67,2.67,0,0,1-.32.71,4.31,4.31,0,0,1-.58.7,2.9,2.9,0,0,1-.68.53,1.32,1.32,0,0,1-.67.21,1.54,1.54,0,0,1-.95-.28,2,2,0,0,1-.62-.74,3.54,3.54,0,0,1-.32-1A6,6,0,0,1,300,303.66Z"/><path class="a" d="M339.67,287.63c.16-.77.35-1.62.56-2.55s.46-1.9.71-2.9.51-2,.77-3,.52-2,.77-2.94.49-1.82.7-2.64.39-1.51.55-2.08c.33-1.27.64-2.56.94-3.84s.58-2.64.86-4.05A3.33,3.33,0,0,1,347,262a4.07,4.07,0,0,1,1.93-.49,3.69,3.69,0,0,1,1.32,1.37,3.88,3.88,0,0,1,.49,2,8.74,8.74,0,0,1-.22,1.76c-.15.66-.34,1.36-.57,2.12s-.48,1.55-.75,2.39-.55,1.69-.82,2.57c-.48,1.61-1,3.23-1.46,4.84s-1,3.31-1.44,5.09c-.12.47-.25,1-.39,1.42s-.29,1-.44,1.53-.31,1.16-.48,1.84-.35,1.46-.52,2.34c-.21,1.05-.4,2.09-.55,3.14s-.31,2.11-.45,3.17-.29,2.13-.47,3.21-.38,2.17-.63,3.27a3,3,0,0,1-.45,1,4,4,0,0,1-.75.78,3.7,3.7,0,0,1-.89.5,2.44,2.44,0,0,1-.89.18,4.26,4.26,0,0,1-.8-.08,1,1,0,0,1-.59-.34,3,3,0,0,1-.49-.85,2.65,2.65,0,0,1-.19-1,1.31,1.31,0,0,1,0-.28v-.28Z"/><path class="a" d="M356.06,268.89c.11-.51.24-1.06.4-1.64a7,7,0,0,1,.62-1.59,4.15,4.15,0,0,1,1-1.21,2.78,2.78,0,0,1,3.24.09,13,13,0,0,1,1.29,1.17,4.72,4.72,0,0,1,1.31,2c.42,1,.85,2.28,1.3,3.77s.92,3.18,1.43,5.07,1.09,3.86,1.71,5.92,1.31,4.17,2.08,6.32a65.08,65.08,0,0,0,2.61,6.29l.55,1.11c.21.42.43.82.64,1.19s.39.64.61.94.31.39.4.39.12-.15.19-.44.14-.65.23-1.07.18-.83.28-1.26a9.68,9.68,0,0,1,.27-1.06c.33-.91.69-1.94,1.09-3.11s.82-2.58,1.3-4.24,1-3.63,1.59-5.91,1.21-5,1.91-8.1c.17-.77.36-1.64.56-2.61s.39-2,.58-3,.34-2,.48-3,.24-1.8.29-2.5v-.62a8,8,0,0,1,.1-1c.05-.37.1-.77.17-1.17a7.06,7.06,0,0,1,.27-1.1,2.63,2.63,0,0,1,.43-.83.82.82,0,0,1,.63-.32,4.53,4.53,0,0,1,.9.12,3.22,3.22,0,0,1,1,.35,9,9,0,0,1,.91,1.84,8.41,8.41,0,0,1,.4,2.9,21.23,21.23,0,0,1-.21,2.76c-.14,1.07-.31,2.22-.53,3.44s-.46,2.49-.73,3.79-.55,2.54-.83,3.73-.54,2.28-.8,3.27-.46,1.81-.64,2.46c-.31,1.14-.64,2.31-1,3.52s-.72,2.48-1.13,3.8-.85,2.73-1.33,4.22-1,3.06-1.61,4.75c-.26.77-.56,1.54-.9,2.3A11.8,11.8,0,0,1,378,302.7a5.86,5.86,0,0,1-1.48,1.5,3,3,0,0,1-1.84.58,4.71,4.71,0,0,1-1.24-.19,2.11,2.11,0,0,1-1.09-.79,34.09,34.09,0,0,1-3.82-6.35,70.16,70.16,0,0,1-3-7.42c-.88-2.58-1.66-5.2-2.34-7.84s-1.3-5.17-1.86-7.59l-.15-.67c-.07-.28-.14-.56-.2-.84s-.12-.55-.18-.78a2.86,2.86,0,0,0-.21-.58c-.08-.15-.17-.22-.28-.22s-.23.22-.39.65-.31.92-.47,1.46-.3,1.06-.43,1.57-.22.84-.25,1c-.12.51-.31,1.24-.55,2.19s-.52,2-.82,3.23-.64,2.46-1,3.8-.7,2.63-1,3.87-.65,2.4-.94,3.47-.55,1.91-.74,2.56-.35,1.17-.57,2-.46,1.62-.68,2.43L351.8,302c-.19.67-.32,1.11-.37,1.32a3.61,3.61,0,0,1-.93,1.7,1.82,1.82,0,0,1-1.24.57,1.28,1.28,0,0,1-.79-.31,3.08,3.08,0,0,1-.69-.75,4.25,4.25,0,0,1-.5-1,2.61,2.61,0,0,1-.19-.92,3.19,3.19,0,0,1,.13-.75c.09-.35.22-.93.42-1.76l.68-3Z"/><path class="a" d="M415,283.65c-.21.06-.59.19-1.13.38l-1.83.7-2.16.85-2.16.86-1.78.69-1,.38a2.07,2.07,0,0,0-.47.18l-.59.29-.58.28a1,1,0,0,1-.43.14,1.85,1.85,0,0,1-1-.26,2.33,2.33,0,0,1-.74-.66,3.08,3.08,0,0,1-.48-1,4.48,4.48,0,0,1-.15-1.15,2.85,2.85,0,0,1,.6-1.91,4.1,4.1,0,0,1,1.43-1.08,6,6,0,0,1,1.71-.49l1.47-.2a1.58,1.58,0,0,0,.31-.09l.52-.21c.2-.08.39-.14.58-.2a1.86,1.86,0,0,1,.47-.09c.31-.16.8-.4,1.47-.71l2.17-1a17.41,17.41,0,0,1,2.34-.85,6.8,6.8,0,0,1,2-.37,3.89,3.89,0,0,1,1.68.34,3.71,3.71,0,0,1,1.25.94,4.17,4.17,0,0,1,.8,1.42,5.66,5.66,0,0,1,.28,1.78,5.93,5.93,0,0,1-.06.84,8.37,8.37,0,0,1-.18,1,23.06,23.06,0,0,1-2.4,6.15,26.87,26.87,0,0,1-3.78,5.15,27.55,27.55,0,0,1-4.79,4.09,30.45,30.45,0,0,1-5.39,2.91h0c-.3.14-.66.28-1.09.43s-.87.29-1.33.41-.92.23-1.36.31A7.74,7.74,0,0,1,398,304a16.49,16.49,0,0,1-1.72-.07,11.77,11.77,0,0,1-1.19-.18,3.89,3.89,0,0,1-.82-.25c-.21-.1-.41-.2-.58-.3a13.69,13.69,0,0,1-2.74-1.84,10.61,10.61,0,0,1-2.13-2.49,12.36,12.36,0,0,1-1.39-3.13A13.63,13.63,0,0,1,387,292a17.47,17.47,0,0,1,.63-4.55,30.44,30.44,0,0,1,1.73-4.79,39.29,39.29,0,0,1,2.58-4.78,49.17,49.17,0,0,1,3.2-4.52,45.45,45.45,0,0,1,3.6-4,38.62,38.62,0,0,1,3.73-3.27c.75-.57,1.56-1.15,2.42-1.74a24.59,24.59,0,0,1,2.66-1.59,17.14,17.14,0,0,1,2.76-1.16,8.46,8.46,0,0,1,2.73-.46,6.64,6.64,0,0,1,2.12.35,6.72,6.72,0,0,1,1.89,1,5.32,5.32,0,0,1,1.36,1.55,4,4,0,0,1,.52,2,5,5,0,0,1-.13,1.09,4.86,4.86,0,0,1-.21.83,3.05,3.05,0,0,1-.39.91l0-.06c-.07.25-.19.4-.35.44a2.22,2.22,0,0,1-.51.06A2.13,2.13,0,0,1,416,269a11.8,11.8,0,0,1-1-1l-.93-1a1.56,1.56,0,0,0-1.08-.44h-.71a16.38,16.38,0,0,0-4.34,1.87,34.06,34.06,0,0,0-4.6,3.33,43.12,43.12,0,0,0-4.38,4.38,36.84,36.84,0,0,0-3.69,5,28.38,28.38,0,0,0-2.55,5.26,14.88,14.88,0,0,0-1,5.11,6.94,6.94,0,0,0,.81,3.43,11.57,11.57,0,0,0,2.36,2.81h0a9.06,9.06,0,0,0,1.77,1,4.84,4.84,0,0,0,1.87.41,6.29,6.29,0,0,0,2.06-.41,17,17,0,0,0,2.22-1c.74-.42,1.47-.87,2.17-1.36s1.35-.94,1.92-1.36a19.57,19.57,0,0,0,4.69-4.83,31.25,31.25,0,0,0,3.14-5.8,1.18,1.18,0,0,1,.1-.3.73.73,0,0,0,.08-.25Z"/><path class="a" d="M418.5,297.74c.59.23,1.2.51,1.82.82s1.26.62,1.92.9a15.5,15.5,0,0,0,2.08.72,8.69,8.69,0,0,0,2.32.3,11,11,0,0,0,2.9-.39,12.89,12.89,0,0,0,2.87-1.13,16.27,16.27,0,0,0,2.68-1.83,15.44,15.44,0,0,0,2.36-2.49c.78-1,1.43-1.91,2-2.72a18.07,18.07,0,0,0,1.27-2.18,10.85,10.85,0,0,0,.69-1.65,4.09,4.09,0,0,0,.21-1.2,1.93,1.93,0,0,0-.45-1.28,3.3,3.3,0,0,0-1.19-.9,6.16,6.16,0,0,0-1.68-.51,11.18,11.18,0,0,0-2-.17c-.4,0-.87,0-1.41.05l-1.65.09-1.62.07h-1.36a7.76,7.76,0,0,1-1.79-.22,7.35,7.35,0,0,1-1.82-.72A6.32,6.32,0,0,1,425,282a7,7,0,0,1-1.26-2.12,8.78,8.78,0,0,1-.29-1,5.47,5.47,0,0,1-.13-1.21,8.54,8.54,0,0,1,.1-1.34c.06-.42.13-.83.22-1.22a12,12,0,0,1,1.21-3,20.38,20.38,0,0,1,2-3,32.52,32.52,0,0,1,2.59-2.79q1.38-1.35,2.88-2.55c1-.8,1.95-1.52,2.9-2.15s1.84-1.19,2.66-1.64a14.37,14.37,0,0,1,3.52-1.37,15.66,15.66,0,0,1,3.54-.43,6.48,6.48,0,0,1,2,.31,5.25,5.25,0,0,1,1.66.9,4.28,4.28,0,0,1,1.14,1.46,4.61,4.61,0,0,1,.42,2,3.66,3.66,0,0,1-.13,1.09,2.38,2.38,0,0,1-.34.72,1.26,1.26,0,0,1-.46.4,1.13,1.13,0,0,1-.51.12,4.74,4.74,0,0,1-1.3-.18c-.39-.12-.77-.25-1.13-.4s-.74-.28-1.1-.41A3.5,3.5,0,0,0,444,264a9.91,9.91,0,0,0-3.94.87,21.66,21.66,0,0,0-3.89,2.21,27.85,27.85,0,0,0-3.59,3q-1.68,1.65-3,3.21a5.92,5.92,0,0,0-1,1.65,4.39,4.39,0,0,0-.32,1.56,2,2,0,0,0,.83,1.71,3.38,3.38,0,0,0,2,.62h1.59l1.82-.07,1.81-.09c.58,0,1.1-.05,1.55-.05a9.72,9.72,0,0,1,3.12.52,7.92,7.92,0,0,1,2.64,1.52,7.31,7.31,0,0,1,1.85,2.49,8,8,0,0,1,.69,3.4,10.1,10.1,0,0,1-.31,2.39,15,15,0,0,1-.87,2.43,23.89,23.89,0,0,1-1.25,2.41c-.48.8-1,1.58-1.5,2.35a30.87,30.87,0,0,1-3.15,3.88,23.42,23.42,0,0,1-3.7,3.19,18.58,18.58,0,0,1-4.15,2.15,13,13,0,0,1-4.49.79,11.21,11.21,0,0,1-2-.2,11.44,11.44,0,0,1-2.07-.61,9.73,9.73,0,0,1-1.92-1,8.59,8.59,0,0,1-1.58-1.37,6.27,6.27,0,0,1-1.09-1.69,5.08,5.08,0,0,1-.41-2,3.37,3.37,0,0,1,.15-1A.65.65,0,0,1,418.5,297.74Z"/><path class="a" d="M500.94,271a7.42,7.42,0,0,0-.59,1.2c-.24.58-.49,1.23-.74,2s-.52,1.54-.78,2.37-.5,1.61-.72,2.34-.4,1.37-.55,1.92-.25.91-.29,1.09-.11.53-.22,1-.19.79-.27,1.1q3.21-1.09,6.35-1.83a28.3,28.3,0,0,1,6.29-.73h1.29a8.47,8.47,0,0,1,1.58.22,3.81,3.81,0,0,1,1.33.6,1.32,1.32,0,0,1,.56,1.16v.36a3,3,0,0,1-.17.77,3.3,3.3,0,0,1-.44.88,1.71,1.71,0,0,1-.82.63h-1.23a23.38,23.38,0,0,0-4.09.36,34.34,34.34,0,0,0-4.12,1,41,41,0,0,0-4.15,1.48c-1.37.57-2.75,1.18-4.13,1.82l-2.89,12.7a1.52,1.52,0,0,1-.47.89,1.23,1.23,0,0,1-.82.39h-.69a1.51,1.51,0,0,1-1.5-.9,5.48,5.48,0,0,1-.42-2.33,18.85,18.85,0,0,1,.2-2.6c.13-.94.29-1.86.46-2.75s.32-1.7.46-2.44a10.55,10.55,0,0,0,.2-1.68q-.35-.5-.69-1a2.54,2.54,0,0,1-.34-1.37,3,3,0,0,1,.66-2,8.38,8.38,0,0,1,1.71-1.6,1.11,1.11,0,0,0,.25-.32,5,5,0,0,0,.23-.53c.06-.19.12-.39.17-.58s.09-.36.13-.49l1.17-4.31c.46-1.68.87-3.16,1.24-4.43s.69-2.41,1-3.41.59-1.92.85-2.72.51-1.59.76-2.34c.07-.25.2-.61.38-1.08a9,9,0,0,1,.66-1.36,5.61,5.61,0,0,1,.88-1.17,1.47,1.47,0,0,1,1.06-.49,4.56,4.56,0,0,1,1.76.22,1.12,1.12,0,0,1,.62.57l.26.63a9.86,9.86,0,0,0,1.3-.21c.56-.1,1.15-.23,1.75-.37s1.16-.26,1.67-.39.89-.23,1.12-.31c1.28-.34,2.46-.64,3.53-.9s2.08-.46,3-.62,1.87-.29,2.75-.36,1.77-.12,2.67-.12a11.46,11.46,0,0,1,1.17.06,3.32,3.32,0,0,1,.93.22,1.35,1.35,0,0,1,.62.46,1.34,1.34,0,0,1,.23.8,2.41,2.41,0,0,1-.12.65,2.59,2.59,0,0,1-.37.79,3.08,3.08,0,0,1-.7.74,3,3,0,0,1-1.1.52,6.2,6.2,0,0,1-.72.16l-1.19.22-1.43.25L516,266l-2.45.56c-.91.21-1.86.43-2.84.69s-2,.52-3,.81-1.93.59-2.81.9a23.17,23.17,0,0,0-2.36,1A7.45,7.45,0,0,0,500.94,271Z"/><path class="a" d="M516.35,297.08c.29-1.12.63-2.43,1-3.92s.83-3.07,1.28-4.74.9-3.37,1.36-5.12.89-3.44,1.29-5.08a2.14,2.14,0,0,1,.2-.4,2.84,2.84,0,0,1,.49-.55,3.09,3.09,0,0,1,.8-.48,3,3,0,0,1,1.15-.2,4.23,4.23,0,0,1,.94.1,3,3,0,0,1,.82.31,1.53,1.53,0,0,1,.57.53,1.33,1.33,0,0,1,.22.77v.19a.61.61,0,0,1,0,.19l-.8,3.08q-1.35,5.17-2.74,10.38t-2.71,10.44a1.35,1.35,0,0,1-.17.43,2.14,2.14,0,0,1-.32.52,1.55,1.55,0,0,1-.48.44,1.3,1.3,0,0,1-.69.18,2.76,2.76,0,0,1-1.32-.31,3.27,3.27,0,0,1-1-.77,3.64,3.64,0,0,1-.6-1,3.12,3.12,0,0,1-.2-1v-.27a.58.58,0,0,1,.06-.26ZM523.83,267a9.73,9.73,0,0,1,.52-1.49,3.94,3.94,0,0,1,1.32-1.57,7.4,7.4,0,0,1,1.12-.48,3.77,3.77,0,0,1,.94-.21,1,1,0,0,1,.59.2,2.75,2.75,0,0,1,.53.44,5.62,5.62,0,0,1,.55.64,1,1,0,0,1,.93.52,2.6,2.6,0,0,1,.21,1.1,4.8,4.8,0,0,1-.08.85l-.15.61a2.61,2.61,0,0,1-.66,1.12,5,5,0,0,1-1.12.87,5.62,5.62,0,0,1-1.31.56,4.16,4.16,0,0,1-1.21.21,1.94,1.94,0,0,1-1-.23,4.3,4.3,0,0,1-.9-1,1.83,1.83,0,0,1-.36-.69,2.94,2.94,0,0,1,0-.42,2.62,2.62,0,0,1,0-.56A3.55,3.55,0,0,1,523.83,267Z"/><path class="a" d="M537.73,267.23c.11-.51.25-1,.42-1.61a7.34,7.34,0,0,1,.69-1.57,3.89,3.89,0,0,1,1.12-1.2,3.25,3.25,0,0,1,3.54.09,14.27,14.27,0,0,1,1.42,1.15,4.68,4.68,0,0,1,1.43,2,34.75,34.75,0,0,1,1.42,3.72c.49,1.48,1,3.14,1.58,5s1.19,3.81,1.86,5.85,1.44,4.11,2.28,6.23a62.27,62.27,0,0,0,2.87,6.21l.6,1.09c.23.42.46.81.7,1.18s.46.68.66.93.35.37.45.37.12-.14.2-.43l.26-1.05c.09-.4.19-.82.3-1.25a8.83,8.83,0,0,1,.3-1c.36-.9.76-1.92,1.19-3.07s.91-2.55,1.43-4.19,1.11-3.58,1.74-5.83,1.32-4.91,2.09-8c.19-.75.39-1.61.61-2.57s.44-1.94.64-2.94.37-2,.53-2.92.25-1.77.31-2.47v-.61a8.22,8.22,0,0,1,.1-1c0-.38.11-.75.19-1.15a5.18,5.18,0,0,1,.3-1.09,2.36,2.36,0,0,1,.47-.81.9.9,0,0,1,.69-.32,5.58,5.58,0,0,1,1,.12,4.07,4.07,0,0,1,1.07.35,8.42,8.42,0,0,1,1,1.81,7.52,7.52,0,0,1,.45,2.86,19.07,19.07,0,0,1-.23,2.72c-.16,1.06-.35,2.19-.59,3.4s-.51,2.46-.8,3.74-.6,2.5-.91,3.68-.59,2.24-.87,3.22-.51,1.79-.7,2.43l-1.08,3.47q-.56,1.8-1.23,3.75c-.45,1.31-.94,2.7-1.46,4.16s-1.12,3-1.77,4.69a24.06,24.06,0,0,1-1,2.27,11.73,11.73,0,0,1-1.28,2.05,6.34,6.34,0,0,1-1.62,1.48,3.72,3.72,0,0,1-2,.57,4.8,4.8,0,0,1-1.36-.19,2.21,2.21,0,0,1-1.19-.77,33.37,33.37,0,0,1-4.19-6.26,65.81,65.81,0,0,1-3.28-7.33c-1-2.55-1.82-5.12-2.57-7.73s-1.42-5.1-2-7.49l-.17-.66c-.08-.28-.15-.55-.22-.83s-.13-.54-.2-.77a2.35,2.35,0,0,0-.23-.57c-.09-.14-.19-.22-.3-.22s-.26.22-.43.64-.34.91-.52,1.44-.33,1-.47,1.56l-.27,1-.6,2.16-.91,3.18c-.33,1.19-.7,2.44-1.09,3.75l-1.1,3.77c-.36,1.23-.71,2.37-1,3.41s-.59,1.89-.8,2.53-.39,1.15-.63,1.95l-.75,2.4-.69,2.19c-.21.66-.34,1.1-.4,1.31a3.46,3.46,0,0,1-1,1.67,2.09,2.09,0,0,1-1.36.57,1.5,1.5,0,0,1-.86-.31,3.56,3.56,0,0,1-.76-.74,4.17,4.17,0,0,1-.54-.94,2.26,2.26,0,0,1-.22-.92,3.14,3.14,0,0,1,.15-.74l.45-1.73.75-3Z"/><path class="a" d="M570.37,298a6.65,6.65,0,0,1,2.68-1.21q1.35-.24,2.88-.39l7.16-29.4h-.64a5.58,5.58,0,0,1-1.18-.09,9.17,9.17,0,0,1-1.27-.24,2.11,2.11,0,0,1-1-.5l-.36-.54a6.37,6.37,0,0,1-.41-.72,6.26,6.26,0,0,1-.35-.8,2.52,2.52,0,0,1-.14-.82,1.38,1.38,0,0,1,.56-1.11,4.26,4.26,0,0,1,1.38-.73,7.59,7.59,0,0,1,1.76-.39,12.32,12.32,0,0,1,1.72-.12q3.62,0,6.69.22a30.46,30.46,0,0,1,5.77.94,21.89,21.89,0,0,1,5,2.07,20,20,0,0,1,4.52,3.57,15.42,15.42,0,0,1,1.53,1.89,14.22,14.22,0,0,1,1.29,2.28,15.32,15.32,0,0,1,.9,2.65,12.12,12.12,0,0,1,.35,3q0,.84-.09,1.77a12.33,12.33,0,0,1-.23,1.6,22.4,22.4,0,0,1-5.83,10.59,23.86,23.86,0,0,1-4.37,3.51,35.68,35.68,0,0,1-4.94,2.58,48.06,48.06,0,0,1-5.18,1.92c-1.76.55-3.47,1-5.14,1.46h0c-.74.23-1.54.43-2.4.61s-1.73.32-2.61.43-1.76.21-2.63.28-1.68.1-2.45.1a11.58,11.58,0,0,1-2.12-.16,5.24,5.24,0,0,1-1.39-.44,2,2,0,0,1-.76-.62,1.36,1.36,0,0,1-.23-.76,2.54,2.54,0,0,1,.33-1.2A3.62,3.62,0,0,1,570.37,298ZM583,289.7c-.23,1-.47,2-.72,3.05s-.48,2.07-.71,3.08l.66-.14,1.7-.44c.72-.19,1.54-.44,2.48-.73s1.92-.64,3-1a27.21,27.21,0,0,0,3.29-1.47,33.89,33.89,0,0,0,3.42-1.95,31.26,31.26,0,0,0,3.24-2.37A19.47,19.47,0,0,0,602,285a13.34,13.34,0,0,0,1.87-3.09,8.39,8.39,0,0,0,0-6.71,11.67,11.67,0,0,0-1.85-2.94,14.08,14.08,0,0,0-2.7-2.41,20.52,20.52,0,0,0-3.19-1.82,18.07,18.07,0,0,0-3.37-1.14,14.07,14.07,0,0,0-3.23-.4A112.3,112.3,0,0,0,585.88,278Q584.4,283.71,583,289.7Z"/><path class="a" d="M580.94,214.27c2.18-21.05,3.76-76.82,3.66-88.84-.13-15,2.4-29.17-4.64-29.12-3.19,0-8,2.51-11.54,6.51C559.7,95.93,549,94.1,536.34,96.1c-18.09,2.85-28.44,13.12-35,24.72-8.52,15-12.15,39.41-10.53,59.71,2.6,32.83,8.46,58.36,39.66,60.25,11.73.72,25.06-3.81,34-8.56,4,10.19,21.22,10.87,26.18,7.58C598.65,234.49,580,223.11,580.94,214.27Zm-18-7.06c-4,18.25-29.67,20.24-41.5,11.37-11.11-8.34-13.75-29.21-13.83-41.69-.11-18.46,2.16-33.48,11.18-48.5,7.45-12.4,26.84-15.31,36.76-5.68,13.23,12.81,12.45,61.6,7.45,84.5Z"/><path class="a" d="M414.06,67.88c.51-4.93.88-18,.86-20.82,0-3.52.56-6.83-1.09-6.82a4.25,4.25,0,0,0-2.7,1.52c-2.05-1.61-4.56-2-7.52-1.57a11,11,0,0,0-8.2,5.79c-2,3.53-2.85,9.24-2.47,14,.61,7.7,2,13.68,9.29,14.12a16.32,16.32,0,0,0,8-2c.93,2.38,5,2.54,6.14,1.77C418.21,72.62,413.85,70,414.06,67.88Zm-4.21-2.65c-1,4.27-7,4.74-9.73,2.66s-3.22-6.85-3.24-9.77c0-4.33.51-7.85,2.62-11.36,1.75-2.91,6.29-3.59,8.62-1.34C411.21,48.43,411,59.86,409.85,65.23Z"/><path class="a" d="M426.44,73.76c1.09,0,2.76-.39,5.05-3.94,2.09-3.22,6.23-11.18,6.46-24.77,0-2.24-.52-3.4-1.47-3.39-1.62,0-2.22,3.54-2.65,7.16-.82,6.89-2.27,12.32-4.48,16.36-2.55,4.65-3.18,5.13-5.5-.19-1.7-3.92-2.62-11.69-2.46-17.12.12-4.11-.1-5.92-1.53-6.19-1.11-.22-2.08,1.19-2.32,4-.71,8.25-.32,17,3.47,23.43C423.64,73.56,425.44,73.76,426.44,73.76Z"/><path class="a" d="M382,40.31a10.08,10.08,0,0,0-8.12,4.79c-2.21,3.23-3.62,8.74-3.81,13.44-.3,7.6.22,10.25.87,12.65.46,1.68,1.56,3.37,2.82,3,1.54-.39,2.28-3.12,2.16-4.44s-2-16.56,2.78-22.46c2.06-2.54,5.44-3.27,7.7-.73,2.67,3,3.86,3.94,5.06,3.07,1.58-1.15-.17-4.64-1.64-6.31A9.59,9.59,0,0,0,382,40.31Z"/><path class="a" d="M545.31,43.3c-2.83-3-10.76-2.49-13.69,2.5a28.89,28.89,0,0,0-3.24,14.93c.59,7.71,1.92,13.7,9,14.15a13.8,13.8,0,0,0,7.72-2c2.11-1.39,3.1-3.57,3.82-6.32C550.87,59.15,549.09,47.34,545.31,43.3ZM544.74,67a6.36,6.36,0,0,1-9.41,2.67c-2.52-2-3.11-6.86-3.13-9.79,0-4.33.49-7.86,2.53-11.39,1.69-2.91,6.09-3.59,8.34-1.33C546.06,50.16,546.61,62.81,544.74,67Z"/><path class="a" d="M453.24,74c-4.39,0-7.92-1-10.45-4-2.36-2.77-4.47-8.86-3.54-16.78,1.3-11,8.53-12.59,11.89-12.64,4.53-.06,7.95,1.37,10.48,5.79,2.33,4.07,1,11.63-4.91,13.53-1.19.38-4.76.52-6.34-.29-3.48-1.81-4-6.5-1.82-6.67,2.84-.22.29,5,5.53,4.35,3.86-.46,5.21-2.79,5.15-5.91-.09-3.67-2.68-5.87-7.89-5.59-7.63.41-10.29,13.73-5.39,20.35,3,4.1,8.73,3,12.83.59,3.56-2.08,5.08-4,5.94-1.81C465.93,67.92,458.21,74,453.24,74Z"/><path class="a" d="M318.15,73.55c-4.39,0-7.92-1-10.45-4-2.36-2.78-4.47-8.87-3.54-16.78,1.3-11,8.53-12.59,11.89-12.64,4.53-.06,8.58,1.24,11.11,5.66,2.33,4.07.38,11.76-5.54,13.65-1.19.39-4.76.53-6.34-.28-3.48-1.81-4-6.5-1.82-6.67,1.76-.14.29,5,5.53,4.35,3.86-.46,5.21-2.79,5.14-5.91-.08-3.67-2.67-5.88-7.88-5.6-7.63.42-10.29,13.74-5.39,20.35,3,4.11,8.73,3,12.83.59,3.56-2.07,5.08-3.94,5.94-1.8C330.83,67.47,323.12,73.53,318.15,73.55Z"/><path class="a" d="M568,24.41c-4.36-.49-6.7,1.25-8.14,2.88-2.81,3.18-4.94,8.44-5.77,17.19a113.49,113.49,0,0,0,.37,22.57c.51,3,1.13,7.16,2.69,7,2-.21,2.38-3.17,1.89-9.41-.42-5.47-1.53-26.76,3.22-32.37A6.48,6.48,0,0,1,571.33,31c.2.16.4.33.59.51,1.34,1.17,3.31,2.44,4.34.78C577.7,30,572.92,25,568,24.41Z"/><path class="a" d="M572.49,47.55c-.19-2-2.64-1.88-3.91-1.82l-16.45.77a2.11,2.11,0,0,0-1.9,2.3,1.78,1.78,0,0,0,.07.39,2.89,2.89,0,0,0,2.75,2.48l15.53-1.23C570.54,50.35,572.65,49.28,572.49,47.55Z"/><path class="a" d="M478.37,74.39c-3.46,0-7-.48-9.19-3.64S466,61.88,466,53.15a153.79,153.79,0,0,1,1.8-22.47c.65-2.95,1.76-6.73,3-6.41,1.55.42,2,3.27,1.09,9.39-.77,5.35-3.08,26.18-.17,32.08,1.83,3.71,5,4.4,7.84,3.43,2.08-.71,4.16-3.55,5.73-1.91C487.18,69.23,482.28,74.37,478.37,74.39Z"/><path class="a" d="M357.64,78c-3.83-4.16-5.51-11.71-5.43-23.23s2-25.75,3.1-29.65,3-8.89,5.13-8.46c2.67.55,3.41,4.32,1.89,12.39-1.33,7.06-7.21,36-.54,43.18,4.14,4.45,5.69,3.63,6.13,5.81C368.63,81.49,361.48,82.12,357.64,78Z"/><path class="a" d="M374.71,22.23l-33.26-1.37c-2.55-.05-3.51,1.31-3.56,3.51s.86,4.41,3.41,4.46l33.12.66c2.55.05,7.38-.75,7.53-3.84C381.63,22.84,377.26,22.29,374.71,22.23Z"/><path class="a" d="M500,41.85c-2.76-.7-7.94-.57-10.57,2.12-1.85,1.89-2.86,6-2.74,8.05.33,5.56,5.94,7.37,7.16,7.59,2.32.41,5.87-.33,8.59,2s1,5.31,0,6.58c-3.52,4.67-8.85,2.89-10.69,1.68-2.91-1.93-4.91-2.8-5.65-1.34-1,2.06,3,5.44,8.6,6.24a12.37,12.37,0,0,0,9.87-2.83c1.45-1.16,3.18-3.85,3.18-8.29s-4.65-7-7.39-7.3c-1.46-.18-6.33.08-8-1.47-3.42-3.17-2.42-6.22-.52-8,2.8-2.57,7.41-1.92,9.79,0,1.57,1.25,3,2,4,.79C506.83,46,504.31,43,500,41.85Z"/><path class="a" d="M264.13,78.76c-5.27,0-10.6-.64-14-4.78s-4.85-11.67-4.78-23.15,1.74-25.65,2.73-29.53,2.68-8.86,4.52-8.43c2.35.55,3,4.3,1.66,12.34-1.17,7-6.14,35-.27,42.18a12.43,12.43,0,0,0,15.14,2.85c4.27-2.24,5.89-3.62,6.92-1.31C277.51,72.16,270.08,78.74,264.13,78.76Z"/><path class="a" d="M268,49.77,240.29,53A3.71,3.71,0,0,1,236,50h0a3.69,3.69,0,0,1,3.45-3.9l27.88-2.58c2.13-.25,5.83-.26,6.43,2.14h0C274,48.29,270.09,49.53,268,49.77Z"/><path class="a" d="M289.93,39.62a11.16,11.16,0,0,0-8.5,5.59c-2.08,3.45-3,9.07-2.66,13.77.57,7.6,1.34,9.19,2.36,11.51.7,1.62,2.14,3.2,3.51,2.75,1.67-.54,1.24-3,.95-4.36a45.34,45.34,0,0,1-1.21-9.63c0-4.27-.44-8.57,1.77-12,1.82-2.84,6-3.88,8.34-1.62,3.83,3.64,2.55,17.53,1.76,21.07-.89,4-.48,5.94,1.06,6.24,1.21.22,2.33-2.27,3-4.22a68.32,68.32,0,0,0,1.86-14.87c.08-5.78-.87-9.58-3.07-11.7S293.35,39.16,289.93,39.62Z"/><path class="a" d="M281.38,19.38c-.84,2.92-2.67,37-2.67,37L284,56s.81-31.69.64-35.37S281.85,17.73,281.38,19.38Z"/></svg>