<svg xmlns="http://www.w3.org/2000/svg" version="1.2" baseProfile="tiny" viewBox="0 0 1024 1024" style="background-color:#000"><linearGradient id="a" gradientUnits="userSpaceOnUse" x1="1122.5" y1="1108.7" x2="-84.8" y2="-71.3"><stop offset=".1" stop-color="#fbb03b"/><stop offset=".2" stop-color="#cfa75f"/><stop offset=".3" stop-color="#a29e83"/><stop offset=".5" stop-color="#7d97a1"/><stop offset=".6" stop-color="#6191b8"/><stop offset=".7" stop-color="#4c8dc9"/><stop offset=".9" stop-color="#408bd3"/><stop offset="1" stop-color="#3c8ad6"/></linearGradient><path fill="url(#a)" d="M0 0h1024v1024H0z"/><path fill="#FFF" d="M366 190v60h-45v57h-35v95h-58V190h138zm143 126a84 84 0 10-168 0 84 84 0 00168 0zm69-15a20 20 0 01-40 0 20 20 0 0140 0zm-7 0c0-7-6-12-13-12s-13 5-13 12 6 12 13 12 13-5 13-12zm51-14c4 4 6 9 6 14 0 11-9 20-20 20s-20-9-20-20 9-20 20-20c6 0 11 2 14 6zm-1 14c0-7-6-12-13-12s-13 5-13 12 6 12 13 12 13-5 13-12zm28 7v18c0 97-131 97-131 0v-19l11 1a30 30 0 0054 9c6 8 15 14 25 14 14 0 26-10 29-23h12zm-49 25h-34l17 29 17-29zm-71-39a30 30 0 0154-9c5-9 15-14 25-14 8 0 16 3 21 9 4 4 7 8 8 14h12v-62l-66 44-65-44v61l11 1zm148 106h118l-51-83c68 0 68-85 0-85h-67v168zM360 570l-75-1 1-47h35v-42h39v-50H227v184h133v-44zm82-64l-63-54v45c0 37 20 60 44 68v50h34v-49c26-7 47-30 47-69v-45l-62 54zm271-56h-33v164h33c113 0 113-164 0-164zm-75 39v-39H520v165h118v-44h-25v-46h-34v-36h59zM323 785a49 49 0 01-40-77v-32l24 14a48 48 0 0133 0l23-14v31l1 1h49a94 94 0 100 56h-49c-9 13-24 21-41 21zm245-40c0-106-131-106-131 0v85h131v-85zm141-86H591v53h28v118h62V712h28v-53z"/></svg>