<?xml version="1.0" encoding="utf-8"?>
<!-- Generator: Adobe Illustrator 23.0.1, SVG Export Plug-In . SVG Version: 6.00 Build 0)  -->
<svg version="1.2" baseProfile="tiny-ps" id="Layer_3_copy_2"
	 xmlns="http://www.w3.org/2000/svg" xmlns:xlink="http://www.w3.org/1999/xlink" viewBox="0 0 1024 1024"
	 xml:space="preserve">
<title>FourEyedCat</title>
<g id="Layer_8">
	<linearGradient id="SVGID_1_" gradientUnits="userSpaceOnUse" x1="1122.4945" y1="1108.698" x2="-84.8318" y2="-71.3441">
		<stop  offset="8.086563e-02" style="stop-color:#FBB03B"/>
		<stop  offset="0.1961" style="stop-color:#CFA75F"/>
		<stop  offset="0.3306" style="stop-color:#A29E83"/>
		<stop  offset="0.4665" style="stop-color:#7D97A1"/>
		<stop  offset="0.6017" style="stop-color:#6191B8"/>
		<stop  offset="0.736" style="stop-color:#4C8DC9"/>
		<stop  offset="0.8692" style="stop-color:#408BD3"/>
		<stop  offset="1" style="stop-color:#3C8AD6"/>
	</linearGradient>
	<rect y="0" fill="url(#SVGID_1_)" width="1024" height="1024"/>
</g>
<path fill="#FFFFFF" d="M365.9,189.6V250h-44.4v57.4h-35.3v94.7h-58.5v-94.7V250v-59.5v-1H365.9z M509.2,316.1
	c0-46.3-37.6-83.9-83.9-83.9c-46.3,0-83.9,37.6-83.9,83.9S379,400,425.4,400C471.7,400,509.2,362.4,509.2,316.1z M577.8,300.8
	c0,10.8-8.9,19.7-19.8,19.7c-10.9,0-19.8-8.8-19.8-19.7c0-10.8,8.9-19.7,19.8-19.7C568.9,281.2,577.8,290,577.8,300.8z M570.7,300.8
	c0-6.8-5.7-12.3-12.8-12.3c-7,0-12.8,5.5-12.8,12.3c0,6.8,5.7,12.3,12.8,12.3C565,313.2,570.7,307.7,570.7,300.8z M622.3,287.1
	c3.7,3.7,5.8,8.6,5.7,13.7c-0.1,10.9-9,19.7-19.8,19.7c-10.9,0-19.8-8.8-19.8-19.7c0-10.8,8.8-19.7,19.6-19.7l0.2,0
	C613.5,281.2,618.5,283.3,622.3,287.1z M620.9,300.8c0-6.8-5.7-12.3-12.8-12.3c-7,0-12.8,5.5-12.8,12.3c0,6.8,5.7,12.3,12.8,12.3
	C615.2,313.2,620.9,307.7,620.9,300.8z M648.8,308v17.5c0,97.3-131.2,97.3-131.2,0V307l11.2,0.7c3.1,13.1,15,22.9,29.2,22.9
	c10.5,0,19.7-5.4,25.1-13.5c5.4,8.1,14.6,13.5,25.1,13.5c14,0,25.9-9.8,29.1-22.9L648.8,308z M599.9,332.5l-33.9,0l17,29.1
	L599.9,332.5z M528.9,293.8c3.2-13,15-22.8,29.1-22.8c10.5,0,19.7,5.4,25.1,13.5c5.3-8.1,14.5-13.5,24.8-13.5l0.3,0
	c8,0.1,15.6,3.2,21.2,8.8c3.9,3.9,6.6,8.6,7.8,13.7l11.6,0.3v-62l-65.6,44.4l-65.6-44.4v61.6L528.9,293.8z M677.3,400h117.9
	l-50.8-83.4c67.8,0,67.8-84.4,0-84.4h-67.1V400z M360,570.2l-75.4-1.5l1-46.5h35.6v-42.7H360v-49.3H226.6v184H360V570.2z
	 M441.7,506.2l-62.8-54l0,44.4c0,37.8,20,60.6,44.1,68.2V615h34v-49.3c25.5-6.5,47.4-29.6,47.4-69.1l0-44.4L441.7,506.2z
	 M713.4,450.2h-33.8v164h33.8C825.6,614.2,825.6,450.2,713.4,450.2z M637.9,489.1v-38.9H519.6v30.6v8.3v36.3v11.8V571v5.4V615h118.3
	v-44H613v-45.6h-34.2v-36.3H637.9z M323.2,785.2c-27.2,0-49.2-22-49.2-49.2c0-10.6,3.3-20.3,9-28.4l0.1-31.5l23.4,13.6
	c5.2-1.9,10.8-2.9,16.7-2.9c5.8,0,11.3,1,16.4,2.8l23-13.5l0.2,30.7c0.3,0.4,0.5,0.7,0.8,1.1h49.6c-11.9-38.4-47.7-66.2-90-66.2
	c-52,0-94.2,42.2-94.2,94.2c0,52,42.2,94.2,94.2,94.2c42.3,0,78.1-27.9,90-66.2h-49.6C354.7,776.8,339.9,785.2,323.2,785.2z
	 M568.2,744.9c0-106.2-131.2-106.2-131.2,0v85.4h131.2V744.9z M708.9,659.3H590.6v53.1h27.9v117.8H681V712.4h27.9V659.3z"/>
</svg>
