<svg xmlns="http://www.w3.org/2000/svg" version="1.2" baseProfile="tiny" viewBox="0 0 1024 1024" style="background-color:#000"><linearGradient id="a" gradientUnits="userSpaceOnUse" x1="1122.4945" y1="1108.698" x2="-84.8318" y2="-71.3441"><stop offset=".08086563" stop-color="#fbb03b"/><stop offset=".1961" stop-color="#cfa75f"/><stop offset=".3306" stop-color="#a29e83"/><stop offset=".4665" stop-color="#7d97a1"/><stop offset=".6017" stop-color="#6191b8"/><stop offset=".736" stop-color="#4c8dc9"/><stop offset=".8692" stop-color="#408bd3"/><stop offset="1" stop-color="#3c8ad6"/></linearGradient><path fill="url(#a)" d="M0 0h1024v1024H0z"/><path fill="#FFF" d="M365.9 189.6V250h-44.4v57.4h-35.3v94.7h-58.5V189.5h138.2zm143.3 126.5c0-46.3-37.6-83.9-83.9-83.9-46.3 0-83.9 37.6-83.9 83.9s37.6 83.9 84 83.9c46.3 0 83.8-37.6 83.8-83.9zm68.6-15.3c0 10.8-8.9 19.7-19.8 19.7s-19.8-8.8-19.8-19.7c0-10.8 8.9-19.7 19.8-19.7 10.9.1 19.8 8.9 19.8 19.7zm-7.1 0c0-6.8-5.7-12.3-12.8-12.3-7 0-12.8 5.5-12.8 12.3 0 6.8 5.7 12.3 12.8 12.3 7.1.1 12.8-5.4 12.8-12.3zm51.6-13.7c3.7 3.7 5.8 8.6 5.7 13.7-.1 10.9-9 19.7-19.8 19.7-10.9 0-19.8-8.8-19.8-19.7 0-10.8 8.8-19.7 19.6-19.7h.2c5.3.1 10.3 2.2 14.1 6zm-1.4 13.7c0-6.8-5.7-12.3-12.8-12.3-7 0-12.8 5.5-12.8 12.3 0 6.8 5.7 12.3 12.8 12.3 7.1.1 12.8-5.4 12.8-12.3zm27.9 7.2v17.5c0 97.3-131.2 97.3-131.2 0V307l11.2.7c3.1 13.1 15 22.9 29.2 22.9 10.5 0 19.7-5.4 25.1-13.5 5.4 8.1 14.6 13.5 25.1 13.5 14 0 25.9-9.8 29.1-22.9l11.5.3zm-48.9 24.5H566l17 29.1 16.9-29.1zm-71-38.7c3.2-13 15-22.8 29.1-22.8 10.5 0 19.7 5.4 25.1 13.5 5.3-8.1 14.5-13.5 24.8-13.5h.3c8 .1 15.6 3.2 21.2 8.8 3.9 3.9 6.6 8.6 7.8 13.7l11.6.3v-62l-65.6 44.4-65.6-44.4v61.6l11.3.4zM677.3 400h117.9l-50.8-83.4c67.8 0 67.8-84.4 0-84.4h-67.1V400zM360 570.2l-75.4-1.5 1-46.5h35.6v-42.7H360v-49.3H226.6v184H360v-44zm81.7-64l-62.8-54v44.4c0 37.8 20 60.6 44.1 68.2V615h34v-49.3c25.5-6.5 47.4-29.6 47.4-69.1v-44.4l-62.7 54zm271.7-56h-33.8v164h33.8c112.2 0 112.2-164 0-164zm-75.5 38.9v-38.9H519.6V615h118.3v-44H613v-45.6h-34.2v-36.3h59.1zM323.2 785.2c-27.2 0-49.2-22-49.2-49.2 0-10.6 3.3-20.3 9-28.4l.1-31.5 23.4 13.6c5.2-1.9 10.8-2.9 16.7-2.9 5.8 0 11.3 1 16.4 2.8l23-13.5.2 30.7c.3.4.5.7.8 1.1h49.6c-11.9-38.4-47.7-66.2-90-66.2-52 0-94.2 42.2-94.2 94.2s42.2 94.2 94.2 94.2c42.3 0 78.1-27.9 90-66.2h-49.6c-8.9 12.9-23.7 21.3-40.4 21.3zm245-40.3c0-106.2-131.2-106.2-131.2 0v85.4h131.2v-85.4zm140.7-85.6H590.6v53.1h27.9v117.8H681V712.4h27.9v-53.1z"/></svg>