<?xml version="1.0" encoding="utf-8"?>
<!-- Generator: Adobe Illustrator 23.0.1, SVG Export Plug-In . SVG Version: 6.00 Build 0)  -->
<svg version="1.0" xmlns="http://www.w3.org/2000/svg" xmlns:xlink="http://www.w3.org/1999/xlink" x="0px" y="0px"
	 viewBox="0 0 1024 1024" enable-background="new 0 0 1024 1024" xml:space="preserve">
<g id="Layer_3_copy_2">
	<rect x="119.1" y="67.1" display="none" fill="#EF1818" width="785.8" height="889.1"/>
	<g display="none">
		<path display="inline" fill="#FFFFFF" d="M519.7,255.2c0,134.4,181.3,134.4,181.3,0V125.7l-90.6,61.4l-90.6-61.4V255.2z"/>
		<ellipse display="inline" fill="#2BC8E2" cx="644.8" cy="221" rx="17.6" ry="17"/>
		<ellipse display="inline" fill="#2BC8E2" cx="575.5" cy="221" rx="17.6" ry="17"/>
		<polygon display="inline" fill="#2BC8E2" points="610,305 586.6,264.7 633.4,264.7 		"/>
		
			<ellipse display="inline" fill="none" stroke="#2BC8E2" stroke-width="14" stroke-miterlimit="10" cx="644.8" cy="221" rx="34.4" ry="34.2"/>
		
			<ellipse display="inline" fill="none" stroke="#2BC8E2" stroke-width="14" stroke-miterlimit="10" cx="575.5" cy="221" rx="34.4" ry="34.2"/>
		
			<rect x="685" y="205.7" transform="matrix(2.724145e-02 -0.9996 0.9996 2.724145e-02 454.9578 909.4426)" display="inline" fill="#2BC8E2" stroke="#2BC8E2" stroke-miterlimit="10" width="19.5" height="30.5"/>
		
			<rect x="520.7" y="210.3" transform="matrix(2.724240e-02 -0.9996 0.9996 2.724240e-02 295.3107 745.1273)" display="inline" fill="#2BC8E2" stroke="#2BC8E2" stroke-miterlimit="10" width="19.5" height="21.1"/>
	</g>
	<g display="none">
		<path display="inline" fill="#FFFFFF" d="M519.7,255.2c0,134.4,181.3,134.4,181.3,0V125.7l-90.6,61.4l-90.6-61.4V255.2z"/>
		<ellipse display="inline" fill="#EF1818" cx="644.8" cy="221" rx="17.6" ry="17"/>
		<ellipse display="inline" fill="#EF1818" cx="575.5" cy="221" rx="17.6" ry="17"/>
		<polygon display="inline" fill="#EF1818" points="610,305 586.6,264.7 633.4,264.7 		"/>
		
			<ellipse display="inline" fill="none" stroke="#EF1818" stroke-width="10" stroke-miterlimit="10" cx="644.8" cy="221" rx="34.4" ry="34.2"/>
		
			<ellipse display="inline" fill="none" stroke="#EF1818" stroke-width="10" stroke-miterlimit="10" cx="575.5" cy="221" rx="34.4" ry="34.2"/>
		
			<rect x="685" y="205.7" transform="matrix(2.724145e-02 -0.9996 0.9996 2.724145e-02 454.9578 909.4426)" display="inline" fill="#EF1818" width="19.5" height="30.5"/>
		
			<rect x="520.7" y="210.3" transform="matrix(2.724240e-02 -0.9996 0.9996 2.724240e-02 295.3107 745.1273)" display="inline" fill="#EF1818" width="19.5" height="21.1"/>
	</g>
	<g id="Layer_8">
		<linearGradient id="SVGID_1_" gradientUnits="userSpaceOnUse" x1="1122.4945" y1="1108.698" x2="-84.8318" y2="-71.3441">
			<stop  offset="8.086563e-02" style="stop-color:#FBB03B"/>
			<stop  offset="0.1961" style="stop-color:#CFA75F"/>
			<stop  offset="0.3306" style="stop-color:#A29E83"/>
			<stop  offset="0.4665" style="stop-color:#7D97A1"/>
			<stop  offset="0.6017" style="stop-color:#6191B8"/>
			<stop  offset="0.736" style="stop-color:#4C8DC9"/>
			<stop  offset="0.8692" style="stop-color:#408BD3"/>
			<stop  offset="1" style="stop-color:#3C8AD6"/>
		</linearGradient>
		<rect y="0" fill="url(#SVGID_1_)" width="1024" height="1024"/>
	</g>
	<path fill="#FFFFFF" d="M365.9,189.6V250h-44.4v57.4h-35.3v94.7h-58.5v-94.7V250v-59.5v-1H365.9z M509.2,316.1
		c0-46.3-37.6-83.9-83.9-83.9c-46.3,0-83.9,37.6-83.9,83.9S379,400,425.4,400C471.7,400,509.2,362.4,509.2,316.1z M577.8,300.8
		c0,10.8-8.9,19.7-19.8,19.7c-10.9,0-19.8-8.8-19.8-19.7c0-10.8,8.9-19.7,19.8-19.7C568.9,281.2,577.8,290,577.8,300.8z
		 M570.7,300.8c0-6.8-5.7-12.3-12.8-12.3c-7,0-12.8,5.5-12.8,12.3c0,6.8,5.7,12.3,12.8,12.3C565,313.2,570.7,307.7,570.7,300.8z
		 M622.3,287.1c3.7,3.7,5.8,8.6,5.7,13.7c-0.1,10.9-9,19.7-19.8,19.7c-10.9,0-19.8-8.8-19.8-19.7c0-10.8,8.8-19.7,19.6-19.7l0.2,0
		C613.5,281.2,618.5,283.3,622.3,287.1z M620.9,300.8c0-6.8-5.7-12.3-12.8-12.3c-7,0-12.8,5.5-12.8,12.3c0,6.8,5.7,12.3,12.8,12.3
		C615.2,313.2,620.9,307.7,620.9,300.8z M648.8,308v17.5c0,97.3-131.2,97.3-131.2,0V307l11.2,0.7c3.1,13.1,15,22.9,29.2,22.9
		c10.5,0,19.7-5.4,25.1-13.5c5.4,8.1,14.6,13.5,25.1,13.5c14,0,25.9-9.8,29.1-22.9L648.8,308z M599.9,332.5l-33.9,0l17,29.1
		L599.9,332.5z M528.9,293.8c3.2-13,15-22.8,29.1-22.8c10.5,0,19.7,5.4,25.1,13.5c5.3-8.1,14.5-13.5,24.8-13.5l0.3,0
		c8,0.1,15.6,3.2,21.2,8.8c3.9,3.9,6.6,8.6,7.8,13.7l11.6,0.3v-62l-65.6,44.4l-65.6-44.4v61.6L528.9,293.8z M677.3,400h117.9
		l-50.8-83.4c67.8,0,67.8-84.4,0-84.4h-67.1V400z M360,570.2l-75.4-1.5l1-46.5h35.6v-42.7H360v-49.3H226.6v184H360V570.2z
		 M441.7,506.2l-62.8-54l0,44.4c0,37.8,20,60.6,44.1,68.2V615h34v-49.3c25.5-6.5,47.4-29.6,47.4-69.1l0-44.4L441.7,506.2z
		 M713.4,450.2h-33.8v164h33.8C825.6,614.2,825.6,450.2,713.4,450.2z M637.9,489.1v-38.9H519.6v30.6v8.3v36.3v11.8V571v5.4V615
		h118.3v-44H613v-45.6h-34.2v-36.3H637.9z M323.2,785.2c-27.2,0-49.2-22-49.2-49.2c0-10.6,3.3-20.3,9-28.4l0.1-31.5l23.4,13.6
		c5.2-1.9,10.8-2.9,16.7-2.9c5.8,0,11.3,1,16.4,2.8l23-13.5l0.2,30.7c0.3,0.4,0.5,0.7,0.8,1.1h49.6c-11.9-38.4-47.7-66.2-90-66.2
		c-52,0-94.2,42.2-94.2,94.2c0,52,42.2,94.2,94.2,94.2c42.3,0,78.1-27.9,90-66.2h-49.6C354.7,776.8,339.9,785.2,323.2,785.2z
		 M568.2,744.9c0-106.2-131.2-106.2-131.2,0v85.4h131.2V744.9z M708.9,659.3H590.6v53.1h27.9v117.8H681V712.4h27.9V659.3z"/>
</g>
<g id="Layer_3_copy" display="none">
	<rect x="119.1" y="67.1" width="785.8" height="889.1"/>
	<g>
		<path display="inline" d="M519.7,255.2c0,134.4,181.3,134.4,181.3,0V125.7l-90.6,61.4l-90.6-61.4V255.2z"/>
		<ellipse display="inline" cx="644.8" cy="221" rx="17.6" ry="17"/>
		<ellipse display="inline" cx="575.5" cy="221" rx="17.6" ry="17"/>
		<polygon display="inline" points="610,305 586.6,264.7 633.4,264.7 		"/>
		<ellipse display="inline" stroke="#2BC8E2" stroke-width="14" stroke-miterlimit="10" cx="644.8" cy="221" rx="34.4" ry="34.2"/>
		<ellipse display="inline" stroke="#2BC8E2" stroke-width="14" stroke-miterlimit="10" cx="575.5" cy="221" rx="34.4" ry="34.2"/>
		
			<rect x="685" y="205.7" transform="matrix(2.724145e-02 -0.9996 0.9996 2.724145e-02 454.9578 909.4426)" display="inline" stroke="#2BC8E2" stroke-miterlimit="10" width="19.5" height="30.5"/>
		
			<rect x="520.7" y="210.3" transform="matrix(2.724240e-02 -0.9996 0.9996 2.724240e-02 295.3107 745.1273)" display="inline" stroke="#2BC8E2" stroke-miterlimit="10" width="19.5" height="21.1"/>
	</g>
	<g>
		<path display="inline" d="M519.7,255.2c0,134.4,181.3,134.4,181.3,0V125.7l-90.6,61.4l-90.6-61.4V255.2z"/>
		<ellipse display="inline" cx="644.8" cy="221" rx="17.6" ry="17"/>
		<ellipse display="inline" cx="575.5" cy="221" rx="17.6" ry="17"/>
		<polygon display="inline" points="610,305 586.6,264.7 633.4,264.7 		"/>
		<ellipse display="inline" stroke="#EF1818" stroke-width="10" stroke-miterlimit="10" cx="644.8" cy="221" rx="34.4" ry="34.2"/>
		<ellipse display="inline" stroke="#EF1818" stroke-width="10" stroke-miterlimit="10" cx="575.5" cy="221" rx="34.4" ry="34.2"/>
		
			<rect x="685" y="205.7" transform="matrix(2.724145e-02 -0.9996 0.9996 2.724145e-02 454.9578 909.4426)" display="inline" width="19.5" height="30.5"/>
		
			<rect x="520.7" y="210.3" transform="matrix(2.724240e-02 -0.9996 0.9996 2.724240e-02 295.3107 745.1273)" display="inline" width="19.5" height="21.1"/>
	</g>
	<path display="inline" d="M310,67.1v83.6h-61.3v79.4H200V361h-80.8V230.1v-79.4V68.5v-1.3H310z M508.2,242
		c0-64-51.9-115.9-115.9-115.9c-64,0-115.9,51.9-115.9,115.9S328.2,358,392.2,358C456.3,358,508.2,306.1,508.2,242z M603,221
		c0,15-12.3,27.2-27.4,27.2S548.1,236,548.1,221c0-15,12.3-27.2,27.4-27.2S603,206,603,221z M593.2,221c0-9.4-7.9-17-17.6-17
		c-9.7,0-17.6,7.6-17.6,17c0,9.4,7.9,17,17.6,17C585.3,238,593.2,230.4,593.2,221z M664.4,201.9c5.2,5.1,8,11.9,7.9,19
		c-0.2,15-12.5,27.3-27.4,27.3c-15.1,0-27.4-12.2-27.4-27.2c0-15,12.2-27.2,27.1-27.2l0.3,0C652.2,193.8,659.2,196.7,664.4,201.9z
		 M662.5,221c0-9.4-7.9-17-17.6-17c-9.7,0-17.6,7.6-17.6,17c0,9.4,7.9,17,17.6,17C654.6,238,662.5,230.4,662.5,221z M701.1,230.9
		v24.3c0,134.4-181.3,134.4-181.3,0v-25.6l15.5,1c4.3,18.1,20.8,31.6,40.3,31.6c14.5,0,27.3-7.4,34.7-18.7
		c7.4,11.2,20.2,18.7,34.7,18.7c19.4,0,35.8-13.5,40.2-31.7L701.1,230.9z M633.4,264.7l-46.8,0.1l23.5,40.2L633.4,264.7z
		 M535.3,211.2c4.4-18,20.8-31.4,40.2-31.4c14.5,0,27.2,7.4,34.6,18.6c7.4-11.2,20-18.6,34.3-18.6l0.4,0
		c11.1,0.1,21.5,4.4,29.3,12.2c5.4,5.3,9.1,11.9,10.8,18.9l16,0.4v-85.7l-90.6,61.4l-90.6-61.4v85.2L535.3,211.2z M740.4,358h163
		l-70.3-115.2c93.7,0,93.7-116.6,0-116.6h-92.8V358z M301.8,593.2l-104.2-2.1l1.4-64.2h49.2v-59h53.6v-68.2H117.5V654h184.3V593.2z
		 M414.8,504.8L328,430.2l0,61.3c0,52.3,27.7,83.7,60.9,94.2v69.4h47v-68.1c35.2-9,65.5-40.8,65.5-95.5l0-61.3L414.8,504.8z
		 M790.3,427.3h-46.7V654h46.7C945.4,654,945.4,427.3,790.3,427.3z M686,481.1v-53.8H522.5v42.2v11.5v50.2v16.3v46.7v7.4v53.4H686
		v-60.9h-34.4v-63h-47.3v-50.2H686z M251,890.4c-37.5,0-68-30.4-68-68c0-14.6,4.6-28.1,12.5-39.2l0.1-43.5l32.4,18.8
		c7.2-2.6,15-4,23.1-4c8,0,15.6,1.4,22.7,3.9l31.8-18.6l0.3,42.4c0.4,0.5,0.7,1,1.1,1.5h68.5c-16.5-53-65.9-91.5-124.4-91.5
		c-71.9,0-130.2,58.3-130.2,130.2c0,71.9,58.3,130.2,130.2,130.2c58.4,0,107.9-38.5,124.4-91.5h-68.5
		C294.6,878.8,274.2,890.4,251,890.4z M589.7,834.6c0-146.8-181.3-146.8-181.3,0v118h181.3V834.6z M784.1,716.4H620.6v73.4h38.5
		v162.9h86.5V789.8h38.5V716.4z"/>
</g>
<g id="Layer_5" display="none">
</g>
<g id="Guides_For_Artboard" display="none">
</g>
<g id="Layer_1" display="none">
	<rect x="-512" y="-256.3" display="inline" fill="#2BC8E2" stroke="#2BC8E2" stroke-miterlimit="10" width="2048" height="1536"/>
</g>
<g id="Layer_2" display="none">
</g>
<g id="Layer_3" display="none">
	<rect x="119.1" y="67.1" fill="#EF1818" width="785.8" height="889.1"/>
	<g>
		<path display="inline" fill="#FFFFFF" d="M519.7,255.2c0,134.4,181.3,134.4,181.3,0V125.7l-90.6,61.4l-90.6-61.4V255.2z"/>
		<ellipse display="inline" fill="#2BC8E2" cx="644.8" cy="221" rx="17.6" ry="17"/>
		<ellipse display="inline" fill="#2BC8E2" cx="575.5" cy="221" rx="17.6" ry="17"/>
		<polygon display="inline" fill="#2BC8E2" points="610,305 586.6,264.7 633.4,264.7 		"/>
		
			<ellipse display="inline" fill="none" stroke="#2BC8E2" stroke-width="14" stroke-miterlimit="10" cx="644.8" cy="221" rx="34.4" ry="34.2"/>
		
			<ellipse display="inline" fill="none" stroke="#2BC8E2" stroke-width="14" stroke-miterlimit="10" cx="575.5" cy="221" rx="34.4" ry="34.2"/>
		
			<rect x="685" y="205.7" transform="matrix(2.724145e-02 -0.9996 0.9996 2.724145e-02 454.9578 909.4426)" display="inline" fill="#2BC8E2" stroke="#2BC8E2" stroke-miterlimit="10" width="19.5" height="30.5"/>
		
			<rect x="520.7" y="210.3" transform="matrix(2.724240e-02 -0.9996 0.9996 2.724240e-02 295.3107 745.1273)" display="inline" fill="#2BC8E2" stroke="#2BC8E2" stroke-miterlimit="10" width="19.5" height="21.1"/>
	</g>
	<g>
		<path display="inline" fill="#FFFFFF" d="M519.7,255.2c0,134.4,181.3,134.4,181.3,0V125.7l-90.6,61.4l-90.6-61.4V255.2z"/>
		<ellipse display="inline" fill="#EF1818" cx="644.8" cy="221" rx="17.6" ry="17"/>
		<ellipse display="inline" fill="#EF1818" cx="575.5" cy="221" rx="17.6" ry="17"/>
		<polygon display="inline" fill="#EF1818" points="610,305 586.6,264.7 633.4,264.7 		"/>
		
			<ellipse display="inline" fill="none" stroke="#EF1818" stroke-width="10" stroke-miterlimit="10" cx="644.8" cy="221" rx="34.4" ry="34.2"/>
		
			<ellipse display="inline" fill="none" stroke="#EF1818" stroke-width="10" stroke-miterlimit="10" cx="575.5" cy="221" rx="34.4" ry="34.2"/>
		
			<rect x="685" y="205.7" transform="matrix(2.724145e-02 -0.9996 0.9996 2.724145e-02 454.9578 909.4426)" display="inline" fill="#EF1818" width="19.5" height="30.5"/>
		
			<rect x="520.7" y="210.3" transform="matrix(2.724240e-02 -0.9996 0.9996 2.724240e-02 295.3107 745.1273)" display="inline" fill="#EF1818" width="19.5" height="21.1"/>
	</g>
	<path display="inline" fill="#FFFFFF" d="M310,67.1v83.6h-61.3v79.4H200V361h-80.8V230.1v-79.4V68.5v-1.3H310z M508.2,242
		c0-64-51.9-115.9-115.9-115.9c-64,0-115.9,51.9-115.9,115.9S328.2,358,392.2,358C456.3,358,508.2,306.1,508.2,242z M603,221
		c0,15-12.3,27.2-27.4,27.2S548.1,236,548.1,221c0-15,12.3-27.2,27.4-27.2S603,206,603,221z M593.2,221c0-9.4-7.9-17-17.6-17
		c-9.7,0-17.6,7.6-17.6,17c0,9.4,7.9,17,17.6,17C585.3,238,593.2,230.4,593.2,221z M664.4,201.9c5.2,5.1,8,11.9,7.9,19
		c-0.2,15-12.5,27.3-27.4,27.3c-15.1,0-27.4-12.2-27.4-27.2c0-15,12.2-27.2,27.1-27.2l0.3,0C652.2,193.8,659.2,196.7,664.4,201.9z
		 M662.5,221c0-9.4-7.9-17-17.6-17c-9.7,0-17.6,7.6-17.6,17c0,9.4,7.9,17,17.6,17C654.6,238,662.5,230.4,662.5,221z M701.1,230.9
		v24.3c0,134.4-181.3,134.4-181.3,0v-25.6l15.5,1c4.3,18.1,20.8,31.6,40.3,31.6c14.5,0,27.3-7.4,34.7-18.7
		c7.4,11.2,20.2,18.7,34.7,18.7c19.4,0,35.8-13.5,40.2-31.7L701.1,230.9z M633.4,264.7l-46.8,0.1l23.5,40.2L633.4,264.7z
		 M535.3,211.2c4.4-18,20.8-31.4,40.2-31.4c14.5,0,27.2,7.4,34.6,18.6c7.4-11.2,20-18.6,34.3-18.6l0.4,0
		c11.1,0.1,21.5,4.4,29.3,12.2c5.4,5.3,9.1,11.9,10.8,18.9l16,0.4v-85.7l-90.6,61.4l-90.6-61.4v85.2L535.3,211.2z M740.4,358h163
		l-70.3-115.2c93.7,0,93.7-116.6,0-116.6h-92.8V358z M301.8,593.2l-104.2-2.1l1.4-64.2h49.2v-59h53.6v-68.2H117.5V654h184.3V593.2z
		 M414.8,504.8L328,430.2l0,61.3c0,52.3,27.7,83.7,60.9,94.2v69.4h47v-68.1c35.2-9,65.5-40.8,65.5-95.5l0-61.3L414.8,504.8z
		 M790.3,427.3h-46.7V654h46.7C945.4,654,945.4,427.3,790.3,427.3z M686,481.1v-53.8H522.5v42.2v11.5v50.2v16.3v46.7v7.4v53.4H686
		v-60.9h-34.4v-63h-47.3v-50.2H686z M251,890.4c-37.5,0-68-30.4-68-68c0-14.6,4.6-28.1,12.5-39.2l0.1-43.5l32.4,18.8
		c7.2-2.6,15-4,23.1-4c8,0,15.6,1.4,22.7,3.9l31.8-18.6l0.3,42.4c0.4,0.5,0.7,1,1.1,1.5h68.5c-16.5-53-65.9-91.5-124.4-91.5
		c-71.9,0-130.2,58.3-130.2,130.2c0,71.9,58.3,130.2,130.2,130.2c58.4,0,107.9-38.5,124.4-91.5h-68.5
		C294.6,878.8,274.2,890.4,251,890.4z M589.7,834.6c0-146.8-181.3-146.8-181.3,0v118h181.3V834.6z M784.1,716.4H620.6v73.4h38.5
		v162.9h86.5V789.8h38.5V716.4z"/>
</g>
</svg>
